<?xml version="1.0" encoding="UTF-8"?>
<svg width="100pt" height="100pt" version="1.1" viewBox="0 0 100 100" xmlns="http://www.w3.org/2000/svg">
 <path d="m44.633 50.02 0.007813 15.293 7.1836-2.0742v-15.543l-15.531-13.449-6.6172 1.9102 14.27 12.355c0.51563 0.44531 0.625 0.875 0.6875 1.5078zm1.5859 1.4805c-0.52734 0.14844-1.0781-0.15625-1.2305-0.68359-0.14844-0.52734 0.15625-1.0781 0.68359-1.2305l3.7734-1.0859c0.52734-0.14844 1.0781 0.15625 1.2305 0.68359 0.14844 0.52734-0.15625 1.0781-0.68359 1.2305zm32.52-19.875c5.0664 0 9.6602 2.0586 12.984 5.3828 3.332 3.332 5.3906 7.9258 5.3906 12.992s-2.0586 9.6602-5.3828 12.984c-3.332 3.332-7.9258 5.3906-12.992 5.3906-4.9258 0-9.3984-1.9375-12.695-5.0898l-43.566 12.578c-0.67187 0.19531-1.3672 0.019531-1.8594-0.40625l-17.043-14.758c-0.83203-0.71875-0.92188-1.9805-0.20312-2.8125s1.9805-0.92188 2.8125-0.20312l16.227 14.051 18.23-5.2617v-1.8359l-18.172 5.2422c-0.66797 0.19141-1.3594 0.015625-1.8477-0.41016l-17.047-14.754c-0.83203-0.71875-0.92188-1.9805-0.20312-2.8125 0.71875-0.83203 1.9805-0.92188 2.8125-0.20312l16.227 14.051 18.23-5.2578v-1.8359l-18.164 5.2422c-0.67187 0.19531-1.3672 0.019531-1.8594-0.40625l-17.043-14.758c-0.83203-0.71875-0.92188-1.9805-0.20312-2.8125s1.9805-0.92188 2.8125-0.20312l16.227 14.055 18.23-5.2617v-1.8359l-18.164 5.2422c-0.67187 0.19531-1.3672 0.019531-1.8594-0.40625l-17.043-14.758c-0.83203-0.71875-0.92188-1.9805-0.20312-2.8125 0.28516-0.32812 0.65625-0.54297 1.0469-0.63281l52.535-15.164c0.66797-0.19141 1.3594-0.015625 1.8477 0.41016l10.914 9.4492c2.668-1.5078 5.7461-2.3711 9.0234-2.3711zm-15.457 28.305c-0.32812-0.50781-0.62891-1.0312-0.90625-1.5703l-6.5547 1.8906v1.832l7.457-2.1523zm-2.3281-5.3086c-0.14453-0.56641-0.26562-1.1445-0.35938-1.7305l-4.7695 1.3789v1.8359l5.1289-1.4805zm-0.54688-5.8242c0.042969-0.64062 0.11719-1.2773 0.22266-1.9023l-4.8047 1.3867v1.8359l4.582-1.3242zm1.6289-6.4492c0.91797-1.9961 2.1797-3.8008 3.7148-5.3359 0.21094-0.21094 0.42969-0.41797 0.64844-0.61719l-9.3867-8.1289-16.152 4.6641 13.453 11.652 7.7227-2.2305zm26.875-2.5195c-2.6016-2.5977-6.1953-4.207-10.168-4.207-3.9727 0-7.5703 1.6094-10.168 4.207-2.5977 2.6016-4.207 6.1953-4.207 10.168 0 3.9688 1.6094 7.5664 4.2109 10.164 2.6016 2.6016 6.1953 4.2109 10.164 4.2109 3.9727 0 7.5703-1.6094 10.168-4.207 2.5977-2.6016 4.207-6.1953 4.207-10.168s-1.6094-7.5703-4.207-10.168zm-8.1797-0.87891v1.8516c0.66016 0.26953 1.2539 0.66797 1.7539 1.1641 0.96875 0.96875 1.5625 2.2969 1.5625 3.75h-4c0-0.36328-0.14453-0.69141-0.375-0.92188-0.23828-0.23828-0.56641-0.38281-0.92969-0.38281-0.35938 0-0.6875 0.14453-0.92188 0.38281-0.23437 0.23047-0.38281 0.55859-0.38281 0.92188 0 1.0703 1.1914 1.8359 2.3828 2.6016 2.1094 1.3555 4.2266 2.7148 4.2266 5.9609 0 1.457-0.59375 2.7812-1.5547 3.7422-0.49609 0.50391-1.0977 0.90234-1.7617 1.1758v1.8477h-3.9844v-1.8516c-0.66016-0.26953-1.2539-0.66797-1.75-1.1641-0.96875-0.96875-1.5625-2.293-1.5625-3.75h4c0 0.36328 0.14453 0.69141 0.375 0.92188 0.23828 0.23828 0.56641 0.38281 0.92969 0.38281 0.35938 0 0.6875-0.14453 0.92188-0.38281 0.23438-0.23047 0.38281-0.55859 0.38281-0.92188 0-1.0742-1.1914-1.8359-2.3828-2.6016-2.1133-1.3555-4.2266-2.7148-4.2266-5.9609 0-1.457 0.59375-2.7812 1.5547-3.7422 0.49609-0.5 1.0938-0.90234 1.7578-1.1719v-1.8516zm-58.32 14.836 16.152-4.6641-13.453-11.652-16.152 4.6602 13.453 11.652z"/>
</svg>
