<?xml version="1.0" encoding="UTF-8"?>
<svg width="100pt" height="100pt" version="1.1" viewBox="0 0 100 100" xmlns="http://www.w3.org/2000/svg">
 <g>
  <path d="m61.227 55.82 10.699-10.43c0.097657-0.09375 0.13281-0.23828 0.089844-0.36719-0.042969-0.12891-0.15234-0.22266-0.28906-0.24219l-14.785-2.1484-6.6133-13.398c-0.058594-0.12109-0.18359-0.19922-0.32031-0.19922-0.13672 0-0.26172 0.078125-0.32031 0.19922l-6.6133 13.398-14.785 2.1484c-0.13281 0.019531-0.24609 0.11328-0.28906 0.24219-0.042969 0.12891-0.007812 0.26953 0.089844 0.36719l10.699 10.43-2.5273 14.727c-0.023438 0.13281 0.03125 0.26953 0.14062 0.35156 0.10938 0.078124 0.25781 0.089843 0.375 0.027343l13.227-6.9531 13.227 6.9531c0.054687 0.027344 0.10938 0.039063 0.16406 0.039063 0.074219 0 0.14844-0.023438 0.21094-0.066406 0.10938-0.078126 0.16406-0.21484 0.14062-0.35156zm-11.051 7.4297c-0.050781-0.027344-0.10938-0.039062-0.16406-0.039062-0.058594 0-0.11328 0.015624-0.16797 0.039062l-12.75 6.7031 2.4375-14.199c0.019531-0.11719-0.019531-0.23438-0.10156-0.31641l-10.316-10.055 14.258-2.0703c0.11719-0.015625 0.21875-0.089844 0.26953-0.19531l6.375-12.918 6.375 12.918c0.050781 0.10547 0.15234 0.17969 0.26953 0.19531l14.258 2.0703-10.316 10.055c-0.085937 0.082031-0.12109 0.19922-0.10547 0.31641l2.4375 14.199z"/>
  <path d="m28.773 25.391c0.10937-0.054687 0.1875-0.16016 0.19922-0.28906 0.011719-0.12109-0.042968-0.23828-0.13281-0.3125l-0.015625-0.015624c-0.60156-0.5625-2.2109-1.875-4.2227-1.875-0.28125 0-0.5625 0.027343-0.83984 0.078124-2.9023 0.5625-4.4805 2.4688-4.4961 3.9766-0.007813 0.5625 0.16406 1.0234 0.50391 1.3672 0.40234 0.40625 1.0117 0.61328 1.8086 0.61328 0.53125 0 1.1445-0.09375 1.8203-0.28125 1.8867-0.54688 4.207-2.3555 5.082-3.0391 0.11719-0.089843 0.24219-0.1875 0.29297-0.22266zm-0.73438-0.33594c-0.84375 0.65625-3.0859 2.4062-4.8359 2.9141-1.3867 0.38281-2.4609 0.32422-2.9258-0.14844-0.19922-0.20312-0.30078-0.49219-0.29688-0.85547 0.011719-1.2227 1.3906-2.7891 3.9141-3.2812 0.23047-0.042969 0.46875-0.066406 0.70703-0.066406 1.5039 0 2.7773 0.86328 3.4492 1.4297-0.003906 0-0.007812 0.003906-0.011719 0.007813z"/>
  <path d="m20.734 36.562c0.003906-0.003906 0.007813-0.011719 0.011719-0.015625 0.074218-0.11328 0.074218-0.25781 0.007812-0.375-0.050781-0.085937-0.13281-0.14453-0.23047-0.16797l-0.027344-0.007812c-1.0547-0.33594-1.9258-0.40625-2.4727-0.40625-1.0664 0-1.9805 0.25781-2.7109 0.76172-2.2305 1.5625-2.6836 3.8047-1.9766 5.1133 0.36719 0.69922 0.98047 1.082 1.7227 1.082 0.78125 0 1.6992-0.42188 2.6602-1.2227 1.4258-1.2266 2.4961-3.6172 2.8984-4.5195 0.050781-0.09375 0.097656-0.19531 0.11719-0.24219zm-3.4727 4.2188c-0.82812 0.69141-1.5859 1.0547-2.1992 1.0547-0.48047 0-0.84766-0.23438-1.0938-0.70313-0.57031-1.0586-0.066406-2.9141 1.7539-4.1914 0.60547-0.42188 1.3789-0.63672 2.3008-0.63672 0.4375 0 1.1016 0.050781 1.918 0.27344-0.37109 0.83203-1.4102 3.1133-2.6797 4.2031z"/>
  <path d="m18.777 42.336c-0.13281-0.011719-0.44531-0.042969-0.86328-0.042969-1.2383 0-2.9453 0.25391-4.0586 1.4609-1.8008 1.9805-1.7461 4.2539-0.78125 5.3867 0.40625 0.48438 0.91797 0.73828 1.4805 0.73828 0.89062 0 1.8398-0.62109 2.7461-1.8008 1.1289-1.5117 1.6328-4.1445 1.7969-5.0117 0.019532-0.10938 0.035156-0.19141 0.046875-0.23438 0.050781-0.12109 0.027344-0.26562-0.058593-0.36719-0.070313-0.082032-0.16797-0.12891-0.27344-0.12891zm-2.0469 5.3125c-0.75391 0.97656-1.5273 1.5156-2.1797 1.5156-0.35156 0-0.66406-0.16406-0.93359-0.48437-0.77734-0.91406-0.70313-2.8242 0.76172-4.4414 0.9375-1.0156 2.4375-1.2266 3.5312-1.2266 0.17578 0 0.33594 0.007812 0.46484 0.011719-0.17188 0.90234-0.65234 3.293-1.6445 4.625z"/>
  <path d="m24.598 22.734c1.0703 0 2.3086-0.55859 3.6836-1.6562 2.2344-1.793 3.0703-5.1211 3.1055-5.2617 0.023437-0.10156 0.003906-0.21094-0.058594-0.29688-0.0625-0.085937-0.16016-0.13672-0.26562-0.14453 0 0-0.14453-0.007812-0.39844-0.007812-1.082 0-3.8047 0.15234-5.7305 1.5781-1.6914 1.25-2.5898 2.4492-2.668 3.5625-0.042969 0.58984 0.16406 1.1406 0.58203 1.5508 0.46094 0.44141 1.0703 0.67578 1.75 0.67578zm-1.625-2.1758c0.042969-0.61719 0.49219-1.6445 2.3828-3.0391 1.7031-1.2578 4.1445-1.4297 5.2109-1.4375-0.29688 0.9375-1.1367 3.1602-2.7305 4.4375-1.2266 0.98047-2.3477 1.5-3.2344 1.5-0.50391 0-0.92969-0.16016-1.2578-0.47656-0.19141-0.18359-0.40234-0.50391-0.37109-0.98438z"/>
  <path d="m23.711 30.918c0.078124-0.10156 0.16016-0.20312 0.19531-0.24609 0.074219-0.0625 0.125-0.15234 0.12891-0.25781 0.007813-0.14453-0.074218-0.27344-0.19531-0.33594l-0.015625-0.007813c-0.53906-0.31641-1.9688-1.0586-3.5547-1.0586-0.60547 0-1.1758 0.10938-1.6953 0.32422-2.5977 1.0859-3.5977 3.2031-3.2188 4.6445 0.24219 0.94922 0.96484 1.4922 1.9766 1.4922 0.68359 0 1.4844-0.23438 2.3828-0.70312 1.6758-0.90234 3.3594-3.043 3.9961-3.8516zm-4.332 3.2188c-0.78125 0.40625-1.4883 0.61719-2.0469 0.61719-0.6875 0-1.1211-0.32031-1.2852-0.95703-0.30469-1.1641 0.66016-2.9062 2.8008-3.8047 0.43359-0.17969 0.91016-0.26953 1.4219-0.26953 1.1602 0 2.2383 0.45312 2.8555 0.77734-0.62109 0.79688-2.2227 2.8203-3.7461 3.6367z"/>
  <path d="m30.734 71.758c-0.070313-0.066406-0.12109-0.11328-0.14844-0.14062-0.078126-0.10547-0.21094-0.16016-0.34375-0.13672-0.10938 0.019531-0.20313 0.085937-0.25391 0.17969l-0.019531 0.03125c-0.5625 0.82422-1.8047 2.9727-1.1992 5.0547 0.73828 2.4727 2.4805 3.6016 3.7852 3.6016 0.13281 0 0.26562-0.011718 0.38672-0.03125 0.60547-0.097656 1.0742-0.40625 1.3516-0.89062 0.44141-0.77344 0.37891-1.9375-0.17969-3.3828-0.75-1.8398-2.7305-3.6797-3.3789-4.2852zm2.9336 7.3125c-0.17188 0.29688-0.44531 0.47656-0.84766 0.53906-1.1094 0.19141-2.7148-0.86719-3.3711-3.0625-0.46094-1.5898 0.36719-3.2734 0.91406-4.1562 0.71484 0.66797 2.4336 2.3242 3.082 3.918 0.46875 1.2109 0.55078 2.1914 0.22266 2.7617z"/>
  <path d="m18.293 73.242c0.69531 0 1.2656-0.21094 1.6445-0.60938 0.35938-0.37891 0.53125-0.90234 0.49609-1.5156-0.03125-0.60547-0.24219-1.2031-0.60938-1.7695 0.42969 0.55469 0.95703 0.92188 1.4961 1.0664 0.19531 0.054688 0.38672 0.078126 0.56641 0.078126 1.2969 0 2.125-1.2969 2.2148-3.4688 0.054688-1.9688-1.0547-4.4453-1.418-5.2617-0.039063-0.089844-0.070313-0.15234-0.085938-0.19141-0.03125-0.12891-0.12891-0.22656-0.25781-0.26172-0.10547-0.027344-0.21875-0.003906-0.30469 0.0625l-0.03125 0.019531c-1.0508 0.64062-2.8516 2.0234-3.0977 4.0742-0.16797 1.4922 0.15625 2.7266 0.71484 3.5977-0.64453-0.85156-1.6562-1.6211-2.9688-2.2344-0.69922-0.33203-1.5039-0.50391-2.3867-0.50391-0.83984 0-1.5938 0.15234-2.0781 0.28125-1.0273 0.27344-1.082 0.39453-1.0938 0.57812 0 0.007812-0.003906 0.015625-0.003906 0.023437-0.023438 0.32812 1.1641 1.9805 1.6406 2.5859 0.88281 1.1133 2.2305 2.5469 3.6289 3.0391 0.71875 0.27344 1.3672 0.41016 1.9336 0.41016zm1.3203-7.6914c0.19531-1.6133 1.625-2.7969 2.4727-3.3633 0.39453 0.88672 1.3438 3.1055 1.2969 4.8125-0.070312 1.7383-0.63281 2.7773-1.5 2.7773-0.11719 0-0.24609-0.019532-0.37891-0.054688-1.125-0.30469-2.1406-1.9492-1.8906-4.1719zm-7.6641 1.875c0.44922-0.14844 1.3125-0.38672 2.3125-0.38672 0.77734 0 1.4766 0.14453 2.082 0.43359 2.0664 0.96875 3.2969 2.3086 3.3711 3.6797 0.015625 0.28516-0.023438 0.69141-0.30078 0.98438-0.23828 0.25391-0.62891 0.38672-1.1211 0.38672-0.47656 0-1.043-0.12109-1.6875-0.35938-2.0078-0.71094-4.0586-3.7383-4.6562-4.7383z"/>
  <path d="m23.301 79.5c1.3398 0 1.9922-0.48047 2.3008-0.88281 0.35938-0.46484 0.46094-1.0859 0.28906-1.75-0.16016-0.60156-0.49219-1.1523-0.98047-1.6406 0.53125 0.46875 1.1328 0.72266 1.6953 0.75 0.046875 0.003907 0.089843 0.003907 0.13281 0.003907 0.57031 0 1.0508-0.21484 1.3984-0.62109 0.56641-0.66406 0.74219-1.8047 0.5-3.3008-0.34375-1.9609-1.9141-4.1758-2.4297-4.9023-0.054687-0.074219-0.09375-0.12891-0.11328-0.16016-0.058594-0.12109-0.17578-0.19922-0.3125-0.20312-0.10938 0-0.21094 0.042969-0.28125 0.12109l-0.027344 0.023438c-0.71875 0.6875-2.375 2.5117-2.2031 4.6719 0.12891 1.5234 0.69922 2.6797 1.4297 3.4219-0.80078-0.71094-1.9414-1.2656-3.3516-1.6016-0.36719-0.089844-0.75781-0.13672-1.1562-0.13672-1.1172 0-2.1484 0.35938-2.8164 0.66016-0.65625 0.29688-0.99219 0.50391-1.168 0.65625-0.089843 0.050781-0.15625 0.13672-0.17969 0.23438-0.003906 0.019531-0.007813 0.035156-0.007813 0.050781-0.003906 0.023438 0 0.050781 0.003907 0.078125 0.054687 0.40234 3.5938 4.0977 6.2383 4.4414 0.375 0.058594 0.72266 0.085938 1.0391 0.085938zm0.6875-7.9453c-0.12891-1.6406 1.0234-3.1094 1.7344-3.8516 1.2656 1.8047 2.0078 3.3125 2.2109 4.4727 0.20312 1.2578 0.082031 2.2266-0.33984 2.7188-0.21094 0.24609-0.49219 0.36719-0.85547 0.36719-0.03125 0-0.0625 0-0.097656-0.003907-1.1484-0.046874-2.4609-1.4531-2.6523-3.7031zm-7.0781 3.4492c0.58984-0.35156 1.9023-0.99219 3.2891-0.99219 0.34375 0 0.67578 0.039062 0.98828 0.11719 2.1992 0.52344 3.6602 1.5938 4.0117 2.9258 0.082031 0.3125 0.12109 0.76172-0.16016 1.1289-0.30469 0.39453-0.90625 0.60547-1.7344 0.60547-0.28516 0-0.59375-0.023437-0.92969-0.074218-2.0898-0.27734-4.6953-2.8555-5.4648-3.7109z"/>
  <path d="m14.277 66.074c1.043 0 1.7539-0.63281 1.9062-1.6914 0.085937-0.59375-0.003906-1.2109-0.25-1.8281 0.3125 0.62109 0.76172 1.0859 1.2656 1.3359 0.30859 0.15625 0.61719 0.23828 0.92188 0.23828 1.1211 0 2.0273-1.0703 2.4922-2.9453 0.44141-1.9141-0.17969-4.5547-0.38672-5.4219-0.019531-0.089844-0.035156-0.15234-0.042968-0.1875-0.007813-0.125-0.082032-0.23828-0.19531-0.29688-0.097656-0.050782-0.20703-0.050782-0.30469-0.007813l-0.03125 0.011719c-0.9375 0.32031-3.1914 1.2812-3.8672 3.3164-0.45703 1.4062-0.37891 2.6641-0.003906 3.6211-0.47266-0.95703-1.3203-1.9141-2.4961-2.7812-1.2695-0.95312-2.8398-1.1523-3.9336-1.1523-0.69922 0-1.0898 0.046875-1.3125 0.10938-0.10156 0.007813-0.19141 0.054688-0.25391 0.13281-0.027344 0.027344-0.042968 0.058594-0.050781 0.085937-0.007813 0.015625-0.011719 0.03125-0.015625 0.046875-0.089844 0.31641 0.76562 2.168 1.1211 2.8516 0.65625 1.2656 1.707 2.9336 2.9922 3.7031 0.91406 0.57031 1.7383 0.85938 2.4453 0.85938zm2.1875-7.2617c0.51172-1.5352 2.1523-2.3789 3.1016-2.7461 0.49219 2.1484 0.60938 3.8125 0.35156 4.9453-0.37891 1.5234-1.0312 2.3984-1.7969 2.3984-0.19141 0-0.39062-0.054687-0.60156-0.16016-1.0547-0.52734-1.7383-2.332-1.0547-4.4375zm-7.9414 0.22266c0.8125-0.089844 2.8398-0.15234 4.3359 0.96875 1.8555 1.375 2.8125 2.9336 2.6172 4.2773-0.070312 0.49219-0.33594 1.0781-1.1992 1.0781-0.5625 0-1.2812-0.26172-2.0781-0.76172-1.8359-1.1016-3.2734-4.457-3.6758-5.5625z"/>
  <path d="m27.262 78.953c-2.6758-0.078125-4.793 2.2539-4.8125 2.2773-0.015625 0.019531-0.03125 0.039062-0.042969 0.058593-0.003906 0.007813-0.007812 0.011719-0.011719 0.019532-0.027343 0.050781-0.039062 0.10547-0.039062 0.16016 0 0.039062 0.003906 0.078125 0.015625 0.11328 0.14062 0.43359 4.0781 3.0508 6.6758 3.0508 0.11719 0 0.23828-0.003906 0.34375-0.015624 1.9453-0.13281 2.7305-0.82813 3.0508-1.3906 0.31641-0.55859 0.30469-1.2305-0.03125-1.8906-0.74609-1.4609-2.625-2.332-5.1484-2.3828zm4.5625 3.9297c-0.32812 0.57422-1.207 0.94141-2.4844 1.0273-0.09375 0.007813-0.1875 0.011719-0.28516 0.011719-2.1016 0-4.9297-1.8359-5.8086-2.4805 0.57031-0.53516 2.0898-1.7773 3.8867-1.7773 0.039063 0 0.074219 0 0.11719 0.003907 2.2539 0.046875 3.9062 0.77734 4.5312 2 0.15625 0.30859 0.29297 0.77344 0.042969 1.2148z"/>
  <path d="m10.82 41.883c0.50391 0 0.98047-0.21875 1.3867-0.63281 1.1133-1.1484 1.3125-3.2344 0.55078-5.7188-0.68359-2.2969-3.0273-3.7383-3.6758-4.0117l0.003907-0.011719c-0.0625-0.03125-0.12891-0.042968-0.19922-0.035156-0.0625 0.007813-0.11719 0.027344-0.16797 0.066406-0.039062 0.027344-0.074219 0.0625-0.10156 0.10547-0.21094 0.32812-1.6406 5.1016-0.48828 7.6758 0.94141 2.2266 2.0898 2.5625 2.6914 2.5625zm-1.707-9.5664c0.75391 0.4375 2.4336 1.6523 2.9609 3.4141 0.6875 2.2344 0.55078 4.0625-0.37891 5.0156-0.26562 0.27344-0.56641 0.41797-0.87109 0.41797-0.72266 0-1.4648-0.77734-2.0352-2.1367-0.89062-1.9688-0.042968-5.5781 0.32422-6.7109z"/>
  <path d="m17.48 26.465c0.27344 0 0.55859-0.054688 0.84766-0.16406 1.5781-0.60156 2.8242-2.4219 3.5039-5.1211 0.73828-2.8359-1.125-5.2852-1.1445-5.3125-0.046875-0.058594-0.12891-0.16797-0.27734-0.1875-0.015625-0.003907-0.035156-0.003907-0.054687-0.003907-0.48047 0-2.4492 2.4375-2.4727 2.4609-0.99609 1.25-2.2109 3.0703-2.332 4.6328-0.15625 1.4141 0.058594 2.4883 0.61719 3.1133 0.34375 0.38281 0.79688 0.58203 1.3125 0.58203zm-1.2148-3.625c0.17578-2.2578 3.0859-5.4219 4.0195-6.2852 0.41406 0.66016 1.3672 2.4727 0.85156 4.4492-0.62109 2.4688-1.707 4.1133-3.0625 4.6289-0.20703 0.078126-0.40625 0.11719-0.59375 0.11719-0.3125 0-0.57422-0.11328-0.77734-0.33984-0.41406-0.46484-0.57031-1.375-0.4375-2.5703z"/>
  <path d="m8.8359 56.859c0.97656 0.91797 1.918 1.4023 2.7305 1.4023 0.80859 0 1.4414-0.47266 1.7383-1.3008 0.19922-0.5625 0.23047-1.1875 0.10547-1.8516 0.1875 0.68359 0.53906 1.2344 0.99609 1.5898 0.38672 0.30469 0.79688 0.46094 1.2266 0.46094 0.99219 0 1.9414-0.84375 2.6758-2.3828 0.79688-1.7305 0.72266-4.418 0.69922-5.3008-0.003906-0.10937-0.003906-0.1875-0.003906-0.23047 0.019532-0.125-0.027344-0.25391-0.12891-0.33594-0.085938-0.070312-0.19922-0.097656-0.30469-0.070312l-0.042968 0.003906c-1.2305 0.14844-3.4453 0.66406-4.4688 2.418-0.73438 1.2773-0.90625 2.5273-0.71875 3.543-0.27344-1.0391-0.92578-2.1562-1.918-3.2617-1.8359-2.0547-4.9492-2.1133-4.9805-2.1133-0.019531 0-0.046875 0-0.082031 0.003906-0.023437 0.003906-0.046875 0.007812-0.066406 0.015625-0.054688 0.019531-0.11328 0.050781-0.16406 0.11328-0.023437 0.03125-0.046875 0.0625-0.058594 0.10156-0.15234 0.38672 0.75 5.3672 2.7656 7.1953zm5.8359-5.2383c0.59766-1.0234 1.9062-1.75 3.6172-2.0234 0.023438 0.92969 0.0625 3.3594-0.63672 4.8789-0.59766 1.2539-1.3359 1.9688-2.0273 1.9688-0.26172 0-0.52734-0.10156-0.78516-0.30859-0.9375-0.73047-1.2578-2.6211-0.16797-4.5156zm-3.7852 0.40234c1.5586 1.7305 2.1914 3.4453 1.7422 4.7031-0.13672 0.37891-0.42969 0.82422-1.0625 0.82422-0.4375 0-1.1797-0.21094-2.2461-1.2148-1.6094-1.457-2.3516-5.0039-2.5234-6.1602 0.81641 0.082031 2.8281 0.43359 4.0898 1.8477z"/>
  <path d="m13.141 33.898c0.38672 0 0.77344-0.125 1.1445-0.36719 1.375-0.89453 2.0742-2.8633 1.9688-5.5391-0.046875-1.4453-0.73828-2.668-1.3125-3.4375-0.007812-0.011719-0.83203-1.082-1.3125-1.3594l0.003906-0.007812c-0.058593-0.035156-0.125-0.058594-0.19531-0.058594-0.17578 0-0.27344 0.11719-0.30469 0.16016-0.26172 0.31641-2.9297 4.6328-2.3945 7.4609 0.45703 2.8438 1.832 3.1484 2.4023 3.1484zm0.36328-9.8867c0.57812 0.55078 1.9805 2.0703 2.0391 4.0078 0.09375 2.3828-0.50391 4.1758-1.6445 4.9141-0.25781 0.16797-0.51172 0.25391-0.75781 0.25391-0.80859 0-1.4414-0.95312-1.6953-2.5586-0.40234-2.125 1.4062-5.5898 2.0586-6.6172z"/>
  <path d="m10.352 50.098c0.63672 0 1.1953-0.33594 1.5742-0.94531 0.84375-1.3516 0.57422-3.4219-0.73828-5.6797-1.2305-2.1602-3.8906-3.0039-4.457-3.1133-0.027344-0.007813-0.054688-0.011719-0.082031-0.011719h-0.011719c-0.082031 0-0.16406 0.027344-0.23047 0.082032-0.039062 0.03125-0.074219 0.074218-0.097656 0.11719-0.14062 0.27344-0.48438 5.2383 1.2383 7.5781 1.1562 1.6328 2.1641 1.9727 2.8047 1.9727zm-3.418-8.9414c0.78516 0.25781 2.6953 1.0273 3.6328 2.6719 1.1758 2.0234 1.4492 3.8242 0.75 4.9453-0.17188 0.27734-0.47656 0.60937-0.96484 0.60937-0.66797 0-1.457-0.59375-2.2227-1.6797-1.3047-1.7734-1.2734-5.3867-1.1953-6.5469z"/>
  <path d="m83.891 74.672c-0.007813-0.007813-0.015625-0.015625-0.027344-0.023437-0.003906-0.003907-0.003906-0.003907-0.007812-0.007813-0.28906-0.22656-2.0625-1.3477-4.0312-1.3477-0.39844 0-0.78906 0.046875-1.1562 0.13672-1.4219 0.33984-2.5703 0.89844-3.3711 1.6211 0.73828-0.73828 1.3164-1.9023 1.4492-3.4414 0.16797-2.168-1.4883-3.9922-2.2109-4.6758l-0.023437-0.023438c-0.070313-0.078125-0.17188-0.12109-0.28125-0.12109-0.13281 0.003907-0.25391 0.085938-0.30859 0.20313-0.019531 0.03125-0.058594 0.085937-0.11328 0.16016-0.51562 0.73047-2.0859 2.9453-2.4336 4.9102-0.23828 1.4922-0.0625 2.6328 0.50391 3.2969 0.34766 0.40625 0.82812 0.62109 1.3984 0.62109 0.042968 0 0.089844-0.003907 0.13281-0.003907 0.57031-0.027343 1.1797-0.28906 1.7148-0.76953-0.49609 0.49219-0.83594 1.0508-1 1.6562-0.17578 0.66016-0.070312 1.2812 0.28516 1.7461 0.3125 0.40234 0.96094 0.88281 2.3047 0.88281 0.32031 0 0.66406-0.027344 1.0234-0.082032 2.6641-0.34766 6.1953-4.043 6.2461-4.4453 0.011719-0.082032-0.007813-0.16016-0.046875-0.23047-0.007812-0.015625-0.027344-0.039063-0.046875-0.0625zm-10.516 0.59375c-0.40625 0.023437-0.71875-0.097656-0.94922-0.36719-0.42188-0.49219-0.54297-1.4609-0.34375-2.7148 0.20312-1.1641 0.94922-2.6719 2.2148-4.4766 0.71484 0.73828 1.8633 2.2031 1.7344 3.8477-0.19141 2.25-1.5 3.6523-2.6562 3.7109zm4.2695 3.4453c-0.32812 0.050781-0.64062 0.074218-0.92578 0.074218-0.83203 0-1.4336-0.21094-1.7383-0.60547-0.28125-0.36719-0.24219-0.81641-0.16016-1.1289 0.35547-1.332 1.8164-2.3984 4.0156-2.9258 0.3125-0.078125 0.64453-0.11719 0.98828-0.11719 1.3867 0 2.7031 0.64453 3.2891 0.99219-0.76953 0.85547-3.375 3.4375-5.4688 3.7109z"/>
  <path d="m82.113 42.293c-0.41406 0-0.73047 0.027343-0.86328 0.042969l-0.03125 0.003906c-0.11719-0.003906-0.23047 0.054687-0.30078 0.15234-0.070313 0.10156-0.082031 0.23047-0.035157 0.34375 0.011719 0.046874 0.03125 0.15625 0.050782 0.26172 0.18359 0.95312 0.67578 3.4844 1.793 4.9883 0.90625 1.1719 1.8555 1.793 2.7461 1.793 0.5625 0 1.0742-0.25391 1.4805-0.73828 0.96094-1.1328 1.0156-3.4062-0.78125-5.3906-1.1133-1.2031-2.8242-1.457-4.0586-1.457zm4.293 6.3867c-0.26953 0.32031-0.58594 0.48437-0.9375 0.48437-0.64844 0-1.4258-0.53906-2.1797-1.5117-0.99219-1.3359-1.4766-3.7539-1.6484-4.6328 0.13281-0.007812 0.28906-0.011719 0.46875-0.011719 1.0938 0 2.5938 0.21484 3.5312 1.2266 1.4688 1.6211 1.543 3.5312 0.76562 4.4453z"/>
  <path d="m77.586 81.242c-0.019532-0.023438-2.0547-2.293-4.6875-2.293-0.042969 0-0.089844 0-0.13281 0.003906-2.5273 0.050781-4.4062 0.92578-5.1562 2.3906-0.33984 0.65625-0.35156 1.3242-0.035156 1.8867 0.31641 0.5625 1.1055 1.2617 3.0469 1.3945 0.11328 0.011719 0.23047 0.015625 0.35156 0.015625 1.4648 0 3.1602-0.76562 4.3242-1.4102 0.48438-0.26953 2.2383-1.3164 2.3477-1.6367 0.035157-0.10547 0.019531-0.22266-0.039062-0.3125-0.003907-0.015625-0.011719-0.027344-0.019531-0.039062zm-6.6133 2.6797c-0.097656 0-0.19531-0.003906-0.29297-0.011719-1.2734-0.085937-2.1523-0.45312-2.4805-1.0312-0.24609-0.4375-0.10938-0.89844 0.050781-1.2109 0.625-1.2266 2.2773-1.9531 4.5391-2 0.039063 0 0.074219-0.003907 0.11328-0.003907 1.7227 0 3.2773 1.1992 3.8867 1.7734-0.88281 0.64062-3.7227 2.4844-5.8164 2.4844z"/>
  <path d="m78.449 28.938c0.79688 0 1.4023-0.20703 1.8086-0.61328 0.33984-0.34375 0.50781-0.80469 0.50391-1.3672-0.015625-1.5078-1.5977-3.4141-4.5-3.9766-0.27344-0.050781-0.55469-0.078125-0.83594-0.078125-2.0078 0-3.6211 1.3125-4.2227 1.875l-0.019531 0.019531c-0.0625 0.054687-0.10938 0.12891-0.12891 0.21484-0.019532 0.10547 0.011718 0.21484 0.078124 0.29297 0.03125 0.039062 0.074219 0.070312 0.12109 0.09375 0.050782 0.035156 0.17969 0.13672 0.30859 0.23437 0.87109 0.67969 3.1914 2.4844 5.0703 3.0273 0.67188 0.18359 1.2812 0.27734 1.8164 0.27734zm-6.4766-3.8945c0.67188-0.56641 1.9492-1.4297 3.4492-1.4297 0.23438 0 0.47266 0.023438 0.70312 0.066407 2.5312 0.49219 3.9062 2.0586 3.9219 3.2812 0.003906 0.36719-0.097656 0.65625-0.29688 0.85547-0.26172 0.26172-0.71094 0.40234-1.3008 0.40234-0.46875 0-1.0156-0.085938-1.625-0.25391-1.7422-0.50391-3.9844-2.25-4.8281-2.9062-0.007813 0-0.015625-0.007813-0.023438-0.015625z"/>
  <path d="m76.121 30.676c0.035156 0.042969 0.12109 0.15234 0.20312 0.25781 0.63672 0.80469 2.3203 2.9414 3.9883 3.8359 0.89453 0.46484 1.6914 0.69922 2.3789 0.69922 1.0117 0 1.7305-0.54297 1.9727-1.4922 0.37891-1.4414-0.61719-3.5625-3.2227-4.6445-0.51953-0.21484-1.0898-0.32031-1.6914-0.32031-1.5938 0-3.0195 0.74219-3.5586 1.0625l-0.015625 0.007812c-0.14453 0.074219-0.21875 0.23828-0.17969 0.39453 0.019531 0.082032 0.066406 0.15234 0.125 0.19922zm3.6289-0.94922c0.51172 0 0.98828 0.089844 1.4219 0.26953 2.1445 0.89453 3.1094 2.6367 2.8047 3.8047-0.16016 0.63281-0.59375 0.95312-1.2812 0.95312-0.55859 0-1.2695-0.21484-2.043-0.61719-1.5273-0.82031-3.1367-2.8555-3.7539-3.6367 0.61719-0.32031 1.6914-0.77344 2.8516-0.77344z"/>
  <path d="m88.711 66.906c-0.19531-0.11328-0.50391-0.19531-0.875-0.29688-0.48438-0.12891-1.2383-0.28125-2.0781-0.28125-0.88672 0-1.6875 0.16797-2.3828 0.5-1.3047 0.60938-2.3086 1.3711-2.957 2.2188 0.55078-0.87109 0.86719-2.0977 0.69531-3.5781-0.24219-2.0508-2.0391-3.4336-3.0938-4.0742l-0.03125-0.019531c-0.085937-0.066406-0.19922-0.089844-0.30859-0.0625-0.12891 0.035156-0.22656 0.13281-0.25781 0.26172-0.015625 0.035156-0.042969 0.10156-0.085937 0.19141-0.36328 0.81641-1.4766 3.293-1.4219 5.2656 0.089844 2.168 0.92188 3.4648 2.2227 3.4648 0.18359 0 0.375-0.027344 0.56641-0.078125 0.53125-0.14453 1.0547-0.50391 1.4805-1.0469-0.35938 0.55859-0.56641 1.1484-0.60156 1.7461-0.035156 0.61328 0.13672 1.1367 0.49609 1.5156 0.37891 0.40234 0.94531 0.61328 1.6445 0.61328 0.5625 0 1.2148-0.13672 1.9258-0.40234 2.5508-0.90625 5.3086-5.2266 5.2773-5.625 0.003907-0.14453-0.085937-0.26172-0.21484-0.3125zm-10.188 2.8164c-0.13281 0.035156-0.26172 0.054688-0.38281 0.054688-0.87109 0-1.4336-1.0391-1.5078-2.7734-0.046874-1.7148 0.90625-3.9297 1.3008-4.8164 0.84766 0.56641 2.2773 1.75 2.4688 3.3633 0.25781 2.2227-0.75391 3.8633-1.8789 4.1719zm4.8906 2.4453c-0.64062 0.23828-1.2031 0.35938-1.6836 0.35938-0.49609 0-0.88672-0.13672-1.125-0.39062-0.27734-0.29688-0.31641-0.69922-0.30078-0.98438 0.078124-1.3711 1.3047-2.7109 3.375-3.6797 0.60156-0.28516 1.3008-0.43359 2.0781-0.43359 0.99609 0 1.8633 0.23438 2.3164 0.38672-0.60547 1.0039-2.6641 4.0312-4.6602 4.7422z"/>
  <path d="m88.836 43.473c-1.3125 2.2617-1.5781 4.332-0.73828 5.6797 0.37891 0.60938 0.9375 0.94922 1.5742 0.94922 0.64062 0 1.6484-0.34375 2.7969-1.9688 1.6836-2.2891 1.3789-7.3164 1.2461-7.5859-0.023438-0.046875-0.058594-0.085937-0.097656-0.11719-0.03125-0.027344-0.070313-0.046876-0.10938-0.0625-0.023437-0.007813-0.046874-0.015626-0.070312-0.015626-0.019531-0.003906-0.03125-0.003906-0.058594-0.003906s-0.054687 0.003906-0.082031 0.011719c-0.56641 0.11328-3.2266 0.95312-4.4609 3.1133zm4.25-2.3125c0.074218 1.168 0.09375 4.7969-1.1992 6.5547-0.76172 1.0781-1.5469 1.6719-2.2148 1.6719-0.48828 0-0.79688-0.33203-0.96875-0.60938-0.69531-1.1172-0.42578-2.9219 0.75-4.9453 0.9375-1.6445 2.8477-2.418 3.6328-2.6719z"/>
  <path d="m93.969 49.762c0-0.003907-0.003906-0.023438-0.011719-0.054688-0.003906-0.015625-0.007812-0.027343-0.011719-0.039062-0.019531-0.046875-0.046874-0.089844-0.082031-0.125-0.027343-0.027344-0.058593-0.050781-0.10156-0.070313-0.039063-0.019531-0.085938-0.03125-0.13281-0.035156-0.019531-0.003906-0.035156-0.003906-0.058594-0.003906-0.03125 0-3.1445 0.058594-4.9766 2.1094-1 1.1094-1.6523 2.2344-1.9258 3.2773 0.19531-1.0156 0.023437-2.2695-0.71484-3.5586-1.0234-1.7539-3.2422-2.2656-4.4727-2.418l-0.039063-0.003906c-0.10938-0.023438-0.22266 0.003906-0.30859 0.074218-0.097656 0.082032-0.14453 0.21094-0.12109 0.33203 0 0.042968-0.003907 0.125-0.003907 0.23438-0.023437 0.88281-0.09375 3.5664 0.70313 5.3008 0.73047 1.5312 1.6797 2.3789 2.6719 2.3789 0.42969 0 0.83984-0.15625 1.2227-0.45703 0.46094-0.35547 0.81641-0.91797 1.0039-1.6055-0.13281 0.67188-0.10156 1.3008 0.10156 1.8672 0.29687 0.82422 0.92969 1.3008 1.7383 1.3008 0.8125 0 1.7578-0.48438 2.7266-1.3984 1.9922-1.8047 2.8164-6.3203 2.7812-7.1055zm-8.793 6.3789c-0.25391 0.20312-0.51562 0.30469-0.77734 0.30469-0.69141 0-1.4297-0.71875-2.0234-1.9648-0.69922-1.5195-0.66406-3.9531-0.64062-4.8828 1.7148 0.26953 3.0234 1 3.6172 2.0195 1.0859 1.8984 0.76563 3.7891-0.17578 4.5234zm5.5195 0.19922c-1.0586 1-1.8008 1.2109-2.2383 1.2109-0.63672 0-0.92969-0.44922-1.0625-0.82422-0.45312-1.2578 0.18359-2.9727 1.7461-4.7031 1.2578-1.4102 3.2656-1.7617 4.0859-1.8477-0.17187 1.1523-0.90234 4.6914-2.5312 6.1641z"/>
  <path d="m92.289 58.617c-0.011718-0.027344-0.023437-0.058594-0.050781-0.089844-0.0625-0.078125-0.16016-0.13281-0.26562-0.13672-0.22656-0.0625-0.61719-0.10938-1.3086-0.10938-1.0938 0-2.6641 0.19922-3.9297 1.1484-1.1797 0.87109-2.0312 1.832-2.5039 2.793 0.37891-0.96094 0.45703-2.2227 0-3.6367-0.67188-2.0234-2.9258-2.9883-3.8633-3.3125l-0.03125-0.011719c-0.097657-0.042969-0.20703-0.042969-0.30469 0.007812-0.11328 0.058594-0.19141 0.17188-0.19531 0.30078-0.007813 0.035157-0.023438 0.10547-0.046876 0.19531-0.20312 0.86719-0.82031 3.5039-0.38281 5.418 0.46094 1.8672 1.3672 2.9414 2.4883 2.9414 0.30469 0 0.61328-0.078125 0.92188-0.23438 0.50781-0.25391 0.95703-0.71875 1.2695-1.3438-0.25 0.62109-0.33984 1.2422-0.25781 1.8398 0.15234 1.0586 0.86328 1.6914 1.9102 1.6914 0.71094 0 1.5352-0.28906 2.4453-0.85938 1.2891-0.77344 2.3398-2.4414 2.9922-3.707 0.35547-0.68359 1.207-2.5352 1.1172-2.8516 0.007812-0.019531 0.003906-0.03125-0.003907-0.042968zm-9.7891 4.6328c-0.20703 0.10547-0.40625 0.16016-0.59766 0.16016-0.76562 0-1.4219-0.875-1.7969-2.3906-0.37891-1.6562 0.13281-4.0078 0.35156-4.9492 0.94531 0.36719 2.5938 1.2109 3.1016 2.7422 0.67969 2.1055-0.003906 3.9102-1.0586 4.4375zm5.3203 1.3555c-0.78906 0.49609-1.5078 0.75781-2.0742 0.75781-0.86328 0-1.1328-0.58594-1.2031-1.0781-0.19141-1.3477 0.76562-2.9023 2.625-4.2773 1.1094-0.83594 2.5195-1.0117 3.5039-1.0117 0.33594 0 0.62109 0.019531 0.82812 0.042968-0.39844 1.0977-1.832 4.4531-3.6797 5.5664z"/>
  <path d="m87.273 35.523c-0.44922 1.4609-0.57422 2.7578-0.38281 3.8125-0.24219-1.0195-0.9375-2.1094-2.1875-2.9844-0.73047-0.50781-1.6406-0.76172-2.707-0.76172-0.54688 0-1.4219 0.070312-2.4727 0.40625l-0.027344 0.007812c-0.089844 0.019532-0.17188 0.078125-0.22266 0.16016-0.070313 0.11328-0.070313 0.25391-0.007813 0.36719 0.007813 0.011719 0.011719 0.019531 0.019531 0.027344 0.019532 0.042968 0.054688 0.11719 0.10156 0.22656 0.36328 0.81641 1.4727 3.3047 2.9102 4.5469 0.95703 0.80078 1.875 1.2227 2.6602 1.2227 0.74219 0 1.3594-0.38281 1.7266-1.082 0.27734-0.52344 0.375-1.1914 0.25-1.9062 0.15625 0.67188 0.44922 1.2422 0.87891 1.6836 0.40234 0.41406 0.88281 0.63281 1.3867 0.63281 0.60156 0 1.75-0.33203 2.6875-2.5586 1.1562-2.5859-0.27344-7.3555-0.48438-7.6836-0.027344-0.042969-0.066406-0.078125-0.10938-0.10938-0.046875-0.03125-0.10156-0.050781-0.16016-0.058594-0.070312-0.007812-0.14062 0.003906-0.20312 0.035156l0.007812 0.011719c-0.65625 0.27734-2.9883 1.7188-3.6641 4.0039zm-1.2188 5.6133c-0.24609 0.46484-0.61328 0.70312-1.0977 0.70312-0.61328 0-1.375-0.36328-2.1953-1.0508-1.2695-1.0977-2.3008-3.3516-2.6836-4.207 0.8125-0.22266 1.4805-0.27344 1.918-0.27344 0.91797 0 1.6914 0.21484 2.2969 0.63281 1.8242 1.2734 2.3281 3.1328 1.7617 4.1953zm5.1797-2.1016c-0.57031 1.3516-1.3125 2.1289-2.0352 2.1289-0.30469 0-0.60547-0.14453-0.87109-0.41797-0.92578-0.94922-1.0625-2.7773-0.375-5.0195 0.53906-1.8164 2.2539-2.9883 2.957-3.4023 0.36719 1.1445 1.2031 4.75 0.32422 6.7109z"/>
  <path d="m85.73 33.531c0.37109 0.24219 0.76562 0.36719 1.1484 0.36719 0.57031 0 1.9453-0.30859 2.3984-3.1406 0.53516-2.8438-2.1328-7.1562-2.3945-7.4727-0.03125-0.039062-0.13281-0.15625-0.30469-0.15625-0.039063 0-0.078125 0.007813-0.11719 0.019532l0.003906 0.007812c-0.46484 0.19531-1.375 1.3828-1.3867 1.3984-0.57422 0.76953-1.2695 1.9922-1.3125 3.4336-0.10547 2.6797 0.59375 4.6484 1.9648 5.543zm-1.25-5.5195c0.0625-1.9336 1.4609-3.4531 2.0391-4.0039 0.64844 1.0312 2.4531 4.5 2.0547 6.625-0.25781 1.5938-0.89062 2.5469-1.6953 2.5469-0.24609 0-0.5-0.085938-0.75781-0.25391-1.1367-0.73438-1.7344-2.5273-1.6406-4.9141z"/>
  <path d="m67.473 80.348c1.3086 0 3.0508-1.1289 3.7852-3.6055 0.60938-2.1016-0.64453-4.2383-1.2109-5.0625l-0.015625-0.023438c-0.054688-0.097656-0.15234-0.16016-0.26562-0.17578-0.12891-0.015625-0.25781 0.035156-0.33203 0.14062-0.027344 0.027344-0.082032 0.078125-0.15234 0.14453-0.64844 0.60547-2.6211 2.4453-3.3672 4.2852-0.55859 1.4375-0.62109 2.6016-0.17969 3.375 0.27734 0.48438 0.74219 0.79297 1.3477 0.89062 0.125 0.019532 0.25781 0.03125 0.39062 0.03125zm-1.1211-1.2773c-0.32422-0.57031-0.24609-1.5508 0.22266-2.7578 0.64844-1.5977 2.375-3.2617 3.082-3.9258 0.55078 0.87891 1.375 2.5586 0.91016 4.1523-0.60156 2.0273-2.0156 3.0898-3.0977 3.0898-0.09375 0-0.18359-0.007812-0.27344-0.023437-0.39453-0.058594-0.67187-0.23828-0.84375-0.53516z"/>
  <path d="m81.695 26.301c0.28906 0.10938 0.57422 0.16406 0.84766 0.16406 0.51953 0 0.97266-0.19922 1.3125-0.57812 0.55859-0.625 0.77344-1.7031 0.62109-3.1055-0.12109-1.5703-1.3398-3.3945-2.3359-4.6445-0.019531-0.023438-1.9922-2.4609-2.4688-2.4609-0.015625 0-0.035156 0-0.050781 0.003907-0.14844 0.019531-0.23047 0.125-0.27734 0.1875-0.019531 0.023437-1.8828 2.4766-1.1445 5.3086 0.66406 2.6992 1.9102 4.5195 3.4961 5.125zm-1.957-9.75c0.9375 0.86719 3.8477 4.0391 4.0195 6.2969 0.13281 1.1875-0.027343 2.0977-0.44141 2.5586-0.20312 0.22656-0.46484 0.33984-0.77734 0.33984-0.18359 0-0.38672-0.039063-0.59375-0.11719-1.3438-0.51172-2.457-2.1992-3.0664-4.6328-0.51172-1.9688 0.44141-3.7812 0.85938-4.4453z"/>
  <path d="m71.742 21.074c1.3711 1.1016 2.6094 1.6562 3.6797 1.6562 0.67969 0 1.2891-0.23438 1.7617-0.67969 0.41406-0.40625 0.61719-0.95703 0.57812-1.5469-0.078125-1.1172-0.98047-2.3164-2.6719-3.5625-1.9258-1.4258-4.6484-1.5781-5.7305-1.5781-0.25391 0-0.39844 0.007813-0.39844 0.007813-0.10547 0.007812-0.20313 0.058594-0.26563 0.14453s-0.085937 0.19531-0.0625 0.29688c0.035157 0.14062 0.87109 3.4688 3.1094 5.2617zm2.9219-3.5586c1.8906 1.3945 2.3398 2.4219 2.3828 3.0391 0.035156 0.48437-0.17969 0.80469-0.35938 0.98047-0.33984 0.32031-0.76562 0.48047-1.2656 0.48047-0.89062 0-2.0078-0.51953-3.2344-1.5-1.5938-1.2773-2.4375-3.5039-2.7344-4.4375 1.0703 0.011719 3.5117 0.17969 5.2109 1.4375z"/>
  <path d="m39.598 30.977c0.070313 0.070313 0.16016 0.10547 0.25391 0.10547 0.089844 0 0.18359-0.035156 0.25391-0.10547 0.14062-0.14062 0.14062-0.36719 0-0.50391l-1.7461-1.7461c-0.14062-0.14062-0.36719-0.14062-0.50391 0-0.14062 0.14063-0.14062 0.36719 0 0.50391z"/>
  <path d="m35.715 27.098c0.070312 0.070313 0.16016 0.10547 0.25391 0.10547s0.18359-0.035156 0.25391-0.10547c0.14062-0.14062 0.14062-0.36719 0-0.50391l-1.7461-1.7461c-0.14062-0.14062-0.36719-0.14062-0.50391 0-0.14062 0.14062-0.14062 0.36719 0 0.50391z"/>
  <path d="m38.105 27.199c0.089843 0 0.18359-0.035157 0.25391-0.10547l1.7461-1.7461c0.14062-0.14062 0.14062-0.36719 0-0.50391-0.14062-0.14062-0.36719-0.14062-0.50391 0l-1.7461 1.7461c-0.14062 0.14062-0.14062 0.36719 0 0.50391 0.066406 0.070312 0.15625 0.10547 0.25 0.10547z"/>
  <path d="m34.223 31.082c0.09375 0 0.18359-0.035156 0.25391-0.10547l1.7461-1.7461c0.14062-0.14062 0.14062-0.36719 0-0.50391-0.14062-0.14062-0.36719-0.14062-0.50391 0l-1.7461 1.7461c-0.14062 0.14062-0.14062 0.36719 0 0.50391 0.066406 0.070313 0.16016 0.10547 0.25 0.10547z"/>
  <path d="m63.676 21.602c0.070313 0.070313 0.16016 0.10547 0.25391 0.10547s0.18359-0.035156 0.25391-0.10547c0.14062-0.14062 0.14062-0.36719 0-0.50391l-1.7461-1.7461c-0.14062-0.14062-0.36719-0.14062-0.50781 0-0.14063 0.14063-0.14063 0.36719 0 0.50391z"/>
  <path d="m59.793 17.719c0.070312 0.070312 0.16016 0.10547 0.25391 0.10547s0.18359-0.035157 0.25391-0.10547c0.14062-0.14062 0.14062-0.36719 0-0.50391l-1.7461-1.7461c-0.14063-0.14062-0.36328-0.14062-0.50391 0s-0.14062 0.36719 0 0.50781z"/>
  <path d="m62.18 17.824c0.09375 0 0.18359-0.035157 0.25391-0.10547l1.7461-1.7461c0.14062-0.14062 0.14062-0.36719 0-0.50391-0.14063-0.14062-0.36719-0.14062-0.50391 0l-1.7461 1.7461c-0.14063 0.14062-0.14063 0.36719 0 0.50391 0.066406 0.070312 0.16016 0.10547 0.25 0.10547z"/>
  <path d="m58.301 21.703c0.09375 0 0.18359-0.035156 0.25391-0.10547l1.7461-1.7461c0.14062-0.14062 0.14062-0.36719 0-0.50391-0.14062-0.14062-0.36328-0.14062-0.50391 0l-1.7461 1.7461c-0.14062 0.14062-0.14062 0.36719 0 0.50391 0.066407 0.074219 0.15625 0.10547 0.25 0.10547z"/>
  <path d="m48.516 80.535c-0.14062-0.14062-0.36719-0.14062-0.50391 0-0.14062 0.14062-0.14062 0.36719 0 0.50781l1.7461 1.7461c0.070313 0.070313 0.16016 0.10547 0.25391 0.10547s0.18359-0.035156 0.25391-0.10547c0.14062-0.14062 0.14062-0.36719 0-0.50781z"/>
  <path d="m44.637 76.652c-0.14062-0.14062-0.36719-0.14062-0.50391 0-0.14062 0.14062-0.14062 0.36719 0 0.50781l1.7461 1.7461c0.070313 0.070312 0.16016 0.10547 0.25391 0.10547 0.089844 0 0.18359-0.035157 0.25391-0.10547 0.14062-0.14062 0.14062-0.36719 0-0.50781z"/>
  <path d="m49.758 76.652-1.7461 1.7461c-0.14062 0.14062-0.14062 0.36719 0 0.50781 0.070312 0.070312 0.16016 0.10547 0.25391 0.10547s0.18359-0.035157 0.25391-0.10547l1.7461-1.7461c0.14062-0.14062 0.14062-0.36719 0-0.50781-0.14453-0.14062-0.37109-0.14062-0.50781 0z"/>
  <path d="m45.875 80.535-1.7461 1.7461c-0.14062 0.14062-0.14062 0.36719 0 0.50781 0.070313 0.070313 0.16016 0.10547 0.25391 0.10547 0.089844 0 0.18359-0.035156 0.25391-0.10547l1.7461-1.7461c0.14063-0.14062 0.14063-0.36719 0-0.50781-0.14453-0.14062-0.36719-0.14062-0.50781 0z"/>
 </g>
</svg>
