<?xml version="1.0" encoding="UTF-8"?>
<svg width="100pt" height="100pt" version="1.1" viewBox="0 0 100 100" xmlns="http://www.w3.org/2000/svg">
 <path d="m98.578 32.883c-0.74219-0.79687-1.8984-2.4336-3.1758-4.1562 0.19922 0.054688 0.40625 0.11328 0.61719 0.16406 0.25391 0.0625 0.53516 0.10938 0.85156 0.10938 0.015625 0.003906 0.035156 0.003906 0.050781 0.003906 0.88281 0 1.8906-0.53516 2.5938-1.9297 0.24609-0.47656 0.35547-0.97656 0.35547-1.4688 0-1.6016-1.1914-3.125-2.8789-3.1484-0.097657 0-0.19531 0.007813-0.28906 0.019531-0.35938 0.039063-0.76562 0.13281-1.1836 0.25 0.011719-0.035156 0.03125-0.058593 0.042969-0.089843 1.5312-4.2188-3.3047-5.3867-3.3047-5.3867s1.0938 1.8086 0.37109 3.3008c-0.55078 1.1367-1.6836 1.9609-2.4336 2.418-0.003906-0.003906-0.007812-0.007812-0.011718-0.007812-1.0234-0.50391-2.8047-0.92188-4.8672-0.92969-2.2617-0.003906-4.8906 0.5625-6.8477 2.3555-0.78125-0.28516-1.7188-0.75781-2.3633-1.5-1.082-1.2461-0.49609-3.2773-0.49609-3.2773s-4.3633 2.3828-1.7891 6.0664c0.65625 0.9375 1.4062 1.4844 2.1328 1.8281-0.019531 0.019532-0.035156 0.042969-0.054687 0.0625-0.78516 0.14062-1.5625 0.32031-2.1602 0.56641-0.99219 0.41797-1.5117 1.3438-1.6211 2.3047-1.6875 0.77734-3.6719 1.2109-6.1133 1.5234-0.49609 0.066406-1.6758 0.09375-3.2344 0.089843-3.0586 0-7.6836-0.097656-12.547-0.097656-7.6914 0.011719-15.898 0.21094-19.902 1.5039-2.6016 0.83594-4.9062 2.2148-6.8203 3.9844-3.8359 1.4297-9.1602 4.1758-10.84 8.9453-1.3086 4.25-1.3867 8.5078-1.7852 11.695-0.20312 0.25781-1.1289 1.1328-2.4844 2.1211-1.7266 1.293-2.7422 1.8047-5.8672 3l-2.5234 0.95312 2.5312 0.93359h0.003906l-0.003906 0.007812c0.0625 0.015625 1.6562 0.61328 3.6289 0.61328 1.3516 0 2.9414-0.28516 4.2344-1.3984 0.28516-0.27344 0.53516-0.57031 0.76172-0.87891 0.49609-0.65625 0.85938-1.3945 1.1172-2.2031 0.10937-0.32422 0.20703-0.65625 0.28906-0.99609 0.007812-0.039063 0.019531-0.074219 0.03125-0.10938 0.87891-3.75 0.40625-8.5625 1.9844-13.113 0.77734-2.4844 3.2578-4.5234 5.9336-5.9883-1.7266 2.7617-2.7109 6.0352-2.7109 9.5859 0 0.3125 0.007813 0.63281 0.023438 0.96094 0.10938 2.1992 0.17188 4.1562 0.17188 5.8594 0.03125 4.5742-0.54297 7.332-1.5234 8.2383-0.875 0.85547-1.293 1.8672-1.2891 2.8594 0.011718 1.3633 0.65625 2.5781 1.3477 3.8633 1.1484 2.1016 4.5312 9.8711 4.5352 9.8789l0.21094 0.48828h8.6055l-0.58984-1.1719c0-0.003907-0.10938-0.22656-0.30078-0.60547-0.14844-0.30078-0.34375-0.69141-0.58203-1.168-0.27344-0.54688-0.58984-1.1836-0.92969-1.8672l-0.12109-0.23437c-0.60156-1.207-1.2578-2.5195-1.8359-3.6797-0.30469-0.61328-0.44141-1.2305-0.44141-1.8594-0.003906-0.76953 0.23828-1.5508 0.63281-2.293 0.058594 0.10938 0.10547 0.21875 0.16406 0.32812 0.68359 1.25 2.1602 4.5039 3.2422 6.9375l0.089844 0.20312c0.69531 1.5625 1.207 2.7344 1.2109 2.7344l0.21094 0.48828h8.5977l-0.58594-1.168s-0.58594-1.1719-1.3672-2.7422c-0.17969-0.35938-0.36719-0.73438-0.5625-1.125l-0.27344-0.54688v-0.003906c-0.52734-1.0508-1.0742-2.1523-1.5703-3.1445-0.089844-0.17578-0.16406-0.34766-0.22266-0.52734l-0.28516 0.097656c0.15625-0.24219 0.27734-0.50781 0.29688-0.8125l0.011719-0.19922c0.125-0.003907 0.24609-0.007813 0.36719-0.011719l0.03125 0.31641c0.085938 0.88281 0.82031 1.5352 1.6914 1.5352 0.054687 0 0.097656-0.003906 0.14062-0.003906 0.90234-0.09375 1.5547-0.82812 1.5547-1.6953 0-0.054687 0-0.10547-0.003906-0.14453l-0.054687-0.58203c0.18359-0.066406 0.36719-0.14453 0.54297-0.21875l0.15234 0.28906c0.30078 0.58203 0.89844 0.91406 1.5078 0.91016 0.26953 0.003906 0.53125-0.0625 0.77734-0.1875 0.59375-0.3125 0.92578-0.90234 0.92578-1.5156 0-0.26562-0.0625-0.53125-0.1875-0.77734l-0.30859-0.58203c0.019531-0.019531 0.039062-0.035157 0.058594-0.054688l-0.003907 0.027344c0.054688 0 0.11328 0.003906 0.17188 0.007813 1.1172 0.078124 2.2695 0.10937 3.4297 0.10937 4.7148 0 9.4648-0.53906 11.465-0.79687-0.007813 0.22656-0.015626 0.48437-0.015626 0.76953 0.007813 1.6953 0.17969 4.375 1.1367 7.0586 1.0508 2.9492 2.2656 6.4453 2.5234 7.1914 0.03125 0.089843 0.054687 0.15625 0.054687 0.16016l0.18359 0.54297h7.3203l-0.17969-0.95312c0-0.011719-1.0781-5.8594-1.3242-9.9492-0.007812-0.17578-0.015625-0.34766-0.015625-0.51562 0-1.7539 0.54297-3.3086 1.0938-4.4297 0.36719-0.74609 0.73047-1.2773 0.92578-1.543l2.4336-0.60938c-0.25391 1.2773-0.57812 3.3438-0.58203 5.4648 0 1.293 0.11719 2.6094 0.48047 3.8086 0.22656 0.75391 0.44922 1.4375 0.66797 2.0859l-0.015624 0.003906 0.33984 0.96484c0.80078 2.25 1.418 3.5977 1.4297 3.6172l0.21484 0.47266h6.918l-0.003906-0.007812h0.003906l-0.24219-0.99609c-0.003906-0.003906-0.19531-0.8125-0.44141-2.0977-0.007813-0.046875-0.019532-0.09375-0.027344-0.14453-0.027344-0.13672-0.054688-0.28516-0.082032-0.43359-0.027343-0.15234-0.054687-0.30859-0.085937-0.46875-0.011719-0.074219-0.023437-0.15234-0.039063-0.22656-0.039062-0.24609-0.082031-0.5-0.125-0.76562-0.003906-0.027344-0.007812-0.050782-0.011718-0.078126l-0.058594-0.35937c-0.30078-2.0078-0.56641-4.4336-0.56641-6.7578-0.003906-2.332 0.27734-4.543 0.98047-6.0352 2.6094-5.6484 4.043-10.871 4.0508-14.457-0.003906-1.5039 0.39844-3.1211 0.88672-4.3125 0.24609-0.59375 0.51563-1.0859 0.73828-1.3906 0.066406-0.089843 0.12891-0.16406 0.17578-0.21484 1.0938 0.29688 5.7031 1.5352 7.5352 1.5508 1.9688 0 3.1055-0.65234 3.1953-0.70703 0.039062-0.058594 2.5938-1.4062 3.1641-3.918 0.17969-0.91797 0.42969-1.8672 0.43359-2.9062 0.011719-1.1445-0.36719-2.3984-1.4219-3.5547zm-1.7578-9.4023c0.066407-0.007813 0.125-0.011719 0.17188-0.011719 0.019531 0 0.039062 0.015625 0.058593 0.015625-0.23438 0-0.51172 0.050781-0.78516 0.097656 0.19141-0.042969 0.38672-0.085937 0.55469-0.10156zm-0.67969 1.125c0.37109-0.09375 0.69141-0.125 0.97656-0.125 0.66406 0 1.082 0.1875 1.3516 0.35938 0.19531 0.12891 0.26172 0.21875 0.29688 0.25781 0.039063 0.16797 0.09375 0.32812 0.09375 0.50781 0 0.34375-0.074219 0.67578-0.24219 1.0039-0.64844 1.2031-1.207 1.3672-1.75 1.3906-0.19531 0-0.40234-0.039062-0.61719-0.085938-0.69922-0.17969-1.375-0.39062-1.8828-0.55859-0.37891-0.49609-0.75781-0.98047-1.1367-1.4375 0.87891-0.5 2.0898-1.1289 2.9102-1.3125zm-22.008 4.4531h0.003907c-0.003907 0-0.003907 0.003906-0.007813 0.003906 0 0 0-0.003906 0.003906-0.003906zm-46.863 52.07h-0.60156l-0.73438-1.1602-1.4727 0.58594 0.10937 0.57422h-2.2266c-0.12109-0.27344-0.29688-0.67578-0.49219-1.1211-0.015624-0.035156-0.027343-0.0625-0.042968-0.097656l4.4922-0.71875c0.37109 0.74219 0.70312 1.4141 0.96875 1.9375zm-0.082031-11.93c-0.14453-0.26953-0.26953-0.52344-0.39062-0.76953 0.15625 0.10547 0.30859 0.23047 0.47266 0.32422zm8.3516 7.5898c0.41016 0.81641 0.78906 1.582 1.0742 2.1562h-0.89844l-1.0234-1.3438-1.4062 0.76172 0.20703 0.58203h-1.8008c-0.13672-0.3125-0.34766-0.78906-0.58594-1.3281zm-0.75-1.5039-4.3555 0.8125c-0.71875-1.6133-1.5664-3.4727-2.2617-4.9297 0.11719 0.050781 0.23047 0.10938 0.36328 0.13672 0.10938 0.019531 0.20703 0.027343 0.29688 0.027343 0.78125 0 1.4688-0.53516 1.6523-1.3047 0.26172 0.058594 0.52734 0.11328 0.79688 0.16016l-0.011719 0.21875s-0.003906 0.039062-0.003906 0.09375c0 0.89453 0.69922 1.6328 1.5977 1.6992h0.097657c0.10156 0 0.19141-0.039063 0.28906-0.054688 0.058594 0.14062 0.10547 0.28125 0.17578 0.41797 0.42578 0.85547 0.89844 1.7969 1.3633 2.7227zm7.2305-9.1953c-0.019531 0-0.039062-0.003906-0.058593-0.003906l-0.003907 0.070312c-0.31641 0.33984-0.67969 0.69922-1.1133 1.0586l-0.30859 0.26172 0.67578 1.2969c0.050781 0.09375 0.074218 0.19922 0.074218 0.3125-0.003906 0.25391-0.13672 0.49219-0.375 0.61719-0.10156 0.050781-0.21094 0.078125-0.31641 0.078125-0.25 0-0.48828-0.13281-0.60938-0.36719l-0.375-0.72656-0.23438-0.44531-0.44141 0.23047c-0.39062 0.19531-0.80078 0.37109-1.2344 0.50781l-0.38672 0.12109 0.12891 1.3672v0.0625c0 0.35156-0.26562 0.65234-0.62109 0.6875-0.011718 0-0.046874 0.003906-0.0625 0.003906-0.34766 0-0.65234-0.26953-0.6875-0.62109l-0.078124-0.80078-0.046876-0.49219-0.48828 0.039062c-0.42969 0.03125-0.85156 0.046875-1.2656 0.046875h-0.47656l-0.066406 1.1367c-0.023438 0.36328-0.33203 0.65234-0.69141 0.65234h-0.058593c-0.34375-0.023438-0.625-0.32812-0.625-0.6875l0.003906-0.019532 0.039062-0.69531 0.019532-0.46484-0.46094-0.0625c-0.57422-0.078125-1.1289-0.19141-1.6602-0.33984l-0.53516-0.14844-0.17188 0.98438c-0.058593 0.32812-0.35547 0.56641-0.67969 0.56641-0.046875 0-0.089844-0.003906-0.11719-0.007812-0.33203-0.0625-0.56641-0.35938-0.56641-0.67969 0-0.03125 0.003907-0.074218 0.011719-0.11328l0.16406-0.93359 0.058594-0.35156-0.3125-0.17578c-0.17969-0.10156-0.33594-0.21484-0.50391-0.32031 0.097656-0.074219 0.17188-0.16797 0.27734-0.23828 1.2773-0.88281 2.1523-1.4219 2.6953-1.7266 0.54688-0.30859 0.72656-0.37109 0.72656-0.375l-0.070313-0.17188c0.14844-0.085937 0.29688-0.16797 0.42969-0.25 0.34375-0.22266 1.3203-1.1602 1.7109-1.5273 3.043 0.15234 7.8828 0.80859 9.543 1.5977-0.18359 0.26172-0.47656 0.63672-0.85547 1.0469zm23.66 15.039-0.60547-1.3164-1.5391 0.42578 0.097656 0.89062h-1.6758c-0.13281-0.39062-0.33984-0.97266-0.57422-1.6562-0.054687-0.15625-0.10156-0.28906-0.16016-0.46094l4.5391-0.53125c0.003906 0.039062 0.011719 0.066406 0.015625 0.10156 0.074218 0.49219 0.14453 0.94531 0.21094 1.3594 0.003907 0.015625 0.003907 0.03125 0.007813 0.046875 0.070312 0.42969 0.13672 0.82812 0.19141 1.1406zm12.227-2.8008-1.4844 0.60547 0.16797 0.60938h-1.9453c-0.18359-0.42188-0.46875-1.125-0.82031-2.0586l4.1719-0.47656c0.035156 0.20313 0.066406 0.37109 0.10156 0.5625 0.007813 0.050782 0.019532 0.10156 0.027344 0.15234 0.10156 0.56641 0.19922 1.0938 0.28516 1.5117zm20.07-39.297c-0.13281 0.72266-0.70703 1.4688-1.293 2.0039-0.57812 0.53906-1.1055 0.83594-1.1055 0.84375-0.003906 0.003906-0.15234 0.09375-0.55469 0.22266-0.40234 0.12891-1.0156 0.26172-1.8203 0.26172-0.75781 0.007813-2.6094-0.38672-4.2617-0.78125-1.5156-0.36328-2.8672-0.72656-3.0586-0.77734-0.16016-0.050782-0.29687-0.042969-0.30859-0.042969-0.14844 0.015625-0.26562 0.050781-0.38281 0.089843-0.73047-0.31641-1.9219-0.87109-2.5859-1.4102-0.50781-0.39844-0.77734-0.78906-0.92188-1.0625-0.14844-0.28125-0.15234-0.41016-0.16406-0.41016l-0.99609 0.17188c0.007812 0.085937 0.21875 1.1133 1.4531 2.0977 0.65625 0.51562 1.5781 0.98828 2.3125 1.3242-0.035156 0.042969-0.070312 0.085938-0.10937 0.13281-0.95703 1.3477-1.918 3.9688-1.9336 6.6523 0.007812 3.1719-1.3477 8.2891-3.8984 13.777-0.86719 1.875-1.125 4.2617-1.1289 6.7148 0.003906 2.2734 0.24219 4.6016 0.52734 6.582l-4.4883 0.51172c-0.24609-0.71484-0.50391-1.5039-0.76172-2.3672-0.29297-0.97656-0.41406-2.1523-0.41406-3.3438 0-3.1758 0.82812-6.3555 0.82031-6.3594l0.054687-0.21094c0.60156-0.46875 1.5898-1.2617 2.3047-1.9727l-0.71094-0.71484c-0.59766 0.59766-1.4492 1.293-2.0469 1.7617l-3.1172 0.78125c1.5898-2.6055 3.3086-4.4688 3.3086-4.4805 0 0-0.74609-0.67969-0.74609-0.68359-0.015625 0.015625-2.1523 2.3477-3.9297 5.5039l-0.32812 0.082032-0.16797 0.20703c-0.046876 0.066406-2.5234 3.0234-2.5391 7.2031 0 0.20703 0.007813 0.40625 0.019531 0.61719 0.09375 1.5469 0.29688 3.3086 0.51953 4.9258l-4.8555 0.57031c-0.35938-1.0234-0.74219-2.1094-1.1094-3.1367-0.86719-2.4219-1.043-4.9375-1.0391-6.5117 0-1.0117 0.066407-1.6094 0.066407-1.6133l0.11719-1.043-0.34766 0.054687c0.41797-3.2656 2.8867-8.2695 2.8828-8.2734 0 0-0.90625-0.45313-0.90625-0.45703-0.007812 0.039063-2.6406 5.2422-3.0117 8.8828-1.3672 0.1875-6.668 0.85938-11.875 0.85938-0.72656 0-1.4297-0.039063-2.1406-0.066406 0.45703-0.57031 0.70703-0.97656 0.71484-0.99219l0.23047-0.38281-0.35547-0.27344c-1.5547-1.1328-6.1289-1.7188-9.5625-1.9805 0.74219-0.69531 1.5156-1.4805 2.1914-2.3203 1.5742-1.9727 1.9805-4.3203 1.9805-6.2539 0-2.2344-0.53906-3.9297-0.55078-3.957l-0.96094 0.30469c0 0.007812 0.50391 1.582 0.50391 3.6523 0 1.7969-0.38281 3.9023-1.7578 5.6211-1.8242 2.2812-4.4961 4.2539-4.9688 4.6016l-0.10547-0.26172c-0.082031 0.03125-1.1211 0.46094-3.7422 2.2695-2.0664 1.4336-3.4531 3.6445-3.4609 6 0 0.87109 0.19922 1.75 0.61328 2.5781 0.46094 0.92188 0.97266 1.9414 1.4648 2.9336l-4.4141 0.70703c-1.0703-2.4023-2.4648-5.4727-3.1758-6.7734-0.69141-1.2539-1.1602-2.3008-1.1445-3.0898 0.007812-0.57031 0.17187-1.0703 0.80859-1.7188 1.625-1.7148 1.9688-4.7188 1.9961-9.3828 0-1.7422-0.0625-3.7188-0.16797-5.9453-0.019531-0.29688-0.023437-0.58203-0.023437-0.875 0.003906-4.3438 1.6289-8.1875 4.3164-11.086 2.4414-0.96484 4.3906-1.4102 4.3945-1.418l-0.38672-1.7266c0.96875-0.54297 1.9805-1.0273 3.0703-1.3828 3.5078-1.1602 11.793-1.4336 19.406-1.4258 4.8438 0 9.457 0.10156 12.547 0.10156 1.5898-0.003906 2.7461-0.023437 3.4375-0.10156 2.3203-0.29687 4.3281-0.72266 6.1445-1.4805 0.23438 0.55078 0.60156 1.0586 1.1523 1.4258 0.75391 0.49609 1.4258 0.71875 2.0547 0.71875 0.84766 0.003906 1.4648-0.42578 1.8867-0.81641 1.082-1.0234 2.9531-2.5234 2.9531-2.5273l-0.62891-0.78516c-0.007813 0.003906-1.8828 1.5117-3.0117 2.5781-0.34766 0.32031-0.70703 0.54688-1.1992 0.55078-0.36719-0.003906-0.84766-0.12891-1.5-0.55859-0.44531-0.29297-0.72266-0.73047-0.86328-1.1992 0-0.011718 0.011719-0.23437 0.26172-0.60547 0.26172-0.36719 0.75391-0.83594 1.8086-1.1445 0.70703-0.20703 1.9062-0.27344 2.8594-0.27344 0.875 0 1.5547 0.050781 1.5547 0.050781l0.070313-1.0039c-0.007813-0.007812-0.71484-0.050781-1.6289-0.050781-0.27344 0-0.56641 0.007812-0.86328 0.015625 0.023438-0.027344 0.050782-0.054688 0.074219-0.085938 1.1602-0.14062 2.1328-0.19922 2.1367-0.19922l-0.027344-0.50781c0.52344-0.36719 1.2969-1.0273 1.2344-1.6953-0.050781-0.48437-0.23828-0.77734-0.42188-0.95312 1.4688-0.99609 3.3125-1.3711 5.0586-1.3711 1.6055-0.003906 3.3789 0.19531 4.7227 1.125 0.67578 0.46484 1.3945 1.1602 1.7812 1.875 0.57031 1.0586 1.4336 1.9297 2.1523 2.8867 1.1172 1.4805 2.1758 3.043 3.4062 4.4336 0.80859 0.91016 0.99609 1.6406 1.0078 2.4766 0.011719 0.75-0.20312 1.6055-0.40234 2.582zm-5.0195-2.9961s-0.67188 0.44531-0.44922 1.1172c0.23438 0.70703 1.7656 0.14453 2.4609 1.043 0.74609 0.97266 0.59766 1.8672 0.59766 1.8672l0.74609-0.15234s0.66797-2.1602 1.5664-2.9844c0.69922-0.64062 0.44531-2.0117-0.59375-1.8633-1.0508 0.15234-3.2852 0.22656-4.3281 0.97266zm-8.582-5.5156c-0.41406 0-0.74609 0.33203-0.74609 0.74219 0 0.41406 0.33203 0.74219 0.74609 0.74219 0.41016 0 0.74219-0.33203 0.74219-0.74219 0-0.40625-0.33203-0.74219-0.74219-0.74219zm7.4609-2.4609c-0.41016 0-0.74219 0.33203-0.74219 0.74609 0 0.41016 0.33203 0.74219 0.74219 0.74219 0.41406 0 0.74219-0.33203 0.74219-0.74219 0.003906-0.41406-0.32812-0.74609-0.74219-0.74609zm-24.473 19.203c1.4414 0.16797 2.6016-1.4844 3.1016-2.5391 0.67578-1.4297 1.0508-1.1562 2.6328-0.95703 1.0547 0.12891 2.6641 0.17188 3.4688-0.71875 0.61719-0.68359 0.66406-2.0195-0.20312-2.5-0.57422-0.3125-1.2617-0.070313-1.9297-0.089844-0.25781-0.003906-0.50781-0.050781-0.75-0.18359-1.4648-0.80078-1.9766-1.8594-3.8555-1.5703-1.4258 0.22656-2.7461 1.0977-3.4219 2.3906-0.39453 0.75391-0.98438 1.7617-1.0938 2.625-0.14844 1.1875 0.64844 3.3828 2.0508 3.543zm8.6836 2.2109c-0.039063 0.011719-0.078125 0.027344-0.11328 0.039063-1.2031 0.32031-1.5898-0.80859-2.7188-1.1562-1.9922-0.61719-7.9219 0.65625-7.0898 3.7734 0.29297 1.0938 1.4492 1.2734 0.46484 2.5352-0.52344 0.66797-2.0156 0.82813-1.625 1.9609 0.39844 1.1641 1.4297 1.0664 2.4023 0.72656 0.41016-0.14453 0.99219-0.34375 1.3359-0.61719 0.48438-0.39062 0.65234-1.1523 1.3477-1.2969 0.99219-0.19922 1.3359 1.3086 2.3984 0.94141 1-0.34766 0.39453-1.1367 0.94531-1.6836 0.74219-0.73437 2 0.28125 2.9727-0.36719 1.5312-1.0312 2.5273-5.793-0.32031-4.8555zm-17.258-13.605c-1.5742-0.27344-3.1836 0.29687-4.7578 0.13672-0.24609-0.023437-0.49219-0.066406-0.73828-0.13281-2.3359-0.63672-3.5586-2.6055-6.0586-1-1.2734 0.81641-1.6914 2.0547-2.8203 3.0391-1.0469 0.91016-1.7383 0.77344-2.9766 1.0977-3.125 0.81641-1.1367 3.9766 0.36328 5.6953 1.582 1.8164 2.9805 3.3008 5.4453 3.7852 1.8477 0.36719 3.8828-0.33984 5.043-1.8906 1.4688-1.9609 1.3477-4.2266 4.2422-4.8398 1.8594-0.39453 4.6836-0.63672 5.5-2.7773 0.73828-1.9258-1.6289-2.832-3.2422-3.1133zm-27.191 3.2305c-1.3203-0.23828-2.5352 0.55078-3.0039 1.7969-0.51172 1.3477 0.39062 2.543 0.12891 3.8047-0.40234 1.9414-2.9375 1.6523-3.9141 3.0273-0.29297 0.41016-0.30859 1.0391-0.62109 1.4766-0.36328 0.51562-1.0352 0.73047-1.4219 1.207-0.80078 0.99219-1.1875 2.3047-1.3242 3.5781-0.17578 1.582 0.039063 9.0156 2.5938 8.2695 0.80859-0.23828 1.2422-1.8711 2.3125-2.2852 1.4062-0.54688 2.5117-0.125 3.5625-1.4102 0.92188-1.125 1.2539-2.5391 1.1992-3.9648-0.019531-0.50781-0.039063-1.4414-0.25391-1.9023-0.25781-0.54687-1.2617-0.96094-1.3242-1.5391-0.03125-0.27344 0.050781-0.52344 0.20703-0.76172 0.65234-1.0039 2.6133-1.7461 3.2461-2.3984 1.125-1.1602 2.4453-3.0195 2.2461-4.7109-0.20312-1.6602-1.9102-3.875-3.6328-4.1875z"/>
</svg>
