<?xml version="1.0" encoding="UTF-8"?>
<svg width="100pt" height="100pt" version="1.1" viewBox="0 0 100 100" xmlns="http://www.w3.org/2000/svg">
 <g>
  <path d="m79.562 65.207c0.36719 0.18359 0.69531 0.13672 1.0195 0.15625 0.20312-0.38281 0.097657-0.92578 0.09375-1.3398-0.003906-0.58984 0.003907-1.1797 0.003907-1.7734 0-1.0977-0.074219-2.2266 0.003906-3.3203 0.046875-0.62891 0.30859-1.1797 1.0508-1.043 0.73828 0.14062 0.75 0.92969 0.80469 1.5391 3.5938 0.25 7.1797 0.49609 10.758 0.74609 0.078125-0.62891 0.13281-1.6094 0.98047-1.5742 0.79688 0.03125 0.85938 1.0039 0.95312 1.625 0.83984 0.22656 3.8047-0.29688 3.6133 1.2031-0.16797 1.3281-2.7656 0.61719-3.625 0.61719-0.10938 0.35156-0.0625 0.69531-0.054688 1.0977 0.85938 0.25 3.7461-0.38672 3.6992 1.1133-0.046875 1.4336-2.8047 0.73828-3.6875 0.73828v1.1172c0.91797 0.12109 1.8984 0.03125 2.8008 0.19531 0.49609 0.089843 0.90625 0.35937 0.875 0.92578-0.074218 1.4688-2.7305 0.73438-3.6016 0.76953-0.12891 0.60547-0.44531 1.125-1.1484 1.0391-0.64453-0.078124-0.75-0.63672-0.83594-1.1875-9.7031-0.45312-19.375-1.3906-29.105-0.94531-0.035156-0.76172 0.33984-1.4531 0.6875-2.1055 0.35547-0.66797 0.64844-1.6992 1.1484-2.2305 0.48438-0.51562 1.0742-0.78516 1.4609-1.4219 0.36328-0.59766 0.52344-1.2891 0.51562-1.9844-0.011718-0.79297-0.085937-1.4219 0.24609-2.1719 0.24609-0.54688 0.58203-1.3359 1.0664-1.6875 0.58984-0.42578 1.2461-0.64063 1.7891-1.1719 0.51562-0.5 0.81641-1.2344 1.3906-1.6602 0.51562-0.38281 1.1055-0.32031 1.6953-0.46875 0.59375-0.15234 1.125-0.48828 1.5352-0.94531 0.76953-0.85547 1.1016-2.1016 0.77344-3.2148-0.18359-0.62109-0.54688-1.2031-1.2148-1.3633-0.69922-0.16797-1.2812-0.10547-1.8984-0.5625-0.55078-0.41016-0.84375-1.0078-1.2852-1.5156-0.47656-0.55078-1.0781-0.98047-1.7656-1.2266-0.75781-0.27344-1.5898-0.13672-2.3281-0.41406-0.79687-0.29688-1.2344-0.98047-2.1641-0.98438-1.9961-0.015625-2.4023 1.5117-2.2383 3.1562-0.96875 0.37109-2.3047-0.35547-3.2852-0.48047-1.1406-0.14453-2.0586 0.17969-3.1133 0.52344-2.2031 0.71875-4.7891 0.43359-7.0781 0.4375-2.3086 0.003907-4.543-0.023437-6.8203 0.44531-1.1289 0.23438-2.2383 0.54688-3.3242 0.9375-0.52344 0.1875-1.0195 0.4375-1.5469 0.60938-3.5977 1.1836-4.2812 3.6797-4.4727 4.1758-0.45703 0.40234-1.7383 0.15234-2.2969 0.15234-0.83203 0.003906-1.6641 0.003906-2.4922 0.003906-0.94922 0-1.8984 0.003907-2.8516 0.003907-0.51953 0-1.6602-0.20703-1.8047 0.50781-0.23438 1.1602 3.3281 0.70312 3.9688 0.70312 1.6875-0.007813 3.3789-0.019531 5.0664-0.019531-0.20703 1.2773-0.066407 2.5664-0.18359 3.8477-0.10547 1.1406-0.85547 2.0312-0.89844 3.1914-0.046875 1.207 0.61719 2.1328 0.83984 3.2734 0.23047 1.1914 0.03125 2.4141 0.10938 3.6172-8.4453-0.23828-16.777 0.28125-25.109 0.52734-0.0625 0.62109-0.1875 1.3945-0.92969 1.4688-0.80469 0.082031-1.0703-0.6875-1.1328-1.3516-1.0625 0-2.1211 0.015626-3.1836 0.046876-0.73438 0.023437-1.8086 0.16797-1.8906-0.83594-0.074219-0.93359 0.875-1.0703 1.5938-1.0859 1.1641-0.027343 2.332 0 3.4961 0v-1.5273c-1.168 0-2.3359-0.015625-3.5 0.035156-0.70703 0.03125-1.5977 0.023437-1.6055-0.91016-0.011718-0.97266 1.0664-0.99609 1.793-1.0117 1.0938-0.023438 2.2109 0.050781 3.2969-0.10938 0.16016-0.81641-0.22656-2.043 1.0312-2.0781 1.0117-0.027344 0.96094 1.3281 0.99219 2.0508 2.7148-0.089843 5.4297-0.18359 8.1367-0.27344 0.28125-0.56641-0.13281-1.3477 0.40234-1.8281 0.36719-0.33203 0.96484-0.26953 1.2695 0.10938 0.41797 0.52734 0.22266 1.5391 0.22266 2.1562-0.003907 0.96094-0.011719 1.9219-0.011719 2.8828 0.40625 0.10156 0.73828 0.066406 1.0625 0.015625 0.38672-0.56641 0.11719-1.9688 0.11719-2.6211v-2.9336-5.8672c0-1.957-0.003906-3.9102-0.003906-5.8672 0-0.78906-0.17578-1.8047 0.03125-2.5664 0.21875-0.80469 1.2461-1.3281 1.8711-1.8242 6.0977-4.8555 12.188-9.7188 18.277-14.578 3.2812-2.6172 6.5039-5.3398 9.8789-7.832 10.016 7.9688 20.012 15.93 30.062 23.93 0.003906 6.7383 0.003906 13.488 0.003906 20.223zm-33.078-30.09c-0.47656 1.6875-0.94141 3.3438-1.4453 5.1406 1.5352-1.082 2.9258-2.0586 4.3359-3.0508 1.4648 1.043 2.8945 2.0547 4.4336 3.1484-0.53906-1.8555-1.0352-3.5625-1.5312-5.2695 1.3906-1.0195 2.7227-1.9922 4.1992-3.0742-1.8828-0.14062-3.582-0.26953-5.3359-0.40234-0.57031-1.6445-1.1445-3.2852-1.7656-5.0781-0.61328 1.7852-1.1797 3.4258-1.7539 5.0938-1.7305 0.12891-3.4297 0.25391-5.3008 0.39062 1.4648 1.0938 2.7734 2.0703 4.1641 3.1016zm36.043 27.348c3.6211 0.21484 7.1875 0.42578 10.797 0.64062v-1.2148c-3.6172-0.23047-7.1992-0.45703-10.82-0.68359-0.070312 0.42188-0.035156 0.80469 0.023438 1.2578zm0.023437 2.9883c3.5859 0.20312 7.1719 0.40625 10.742 0.60938v-1.2383c-3.6172-0.19531-7.1875-0.39062-10.762-0.58594-0.070312 0.42578-0.082031 0.79297 0.019531 1.2148zm-66.09-1.7344c-2.7617 0.082031-5.4609 0.16406-8.1914 0.25-0.046875 0.53906-0.097656 1.0273 0.046875 1.5664 2.7188-0.089844 5.418-0.17969 8.1445-0.26953v-1.5469zm6.9141-11.355c-0.125-0.66406-1.1211-0.69531-1.1133 0.023438 0.011719 0.75 1.0547 0.69531 1.1133-0.023438z"/>
  <path d="m64.254 72.715h-5.0195c-0.41406-0.51172-0.80859-1.0039-1.2773-1.5859 1.2148-2.9648-0.46484-5.9102-0.21875-8.9297-0.99609-0.35547-1.7383-0.23828-2.6992 0.11719-0.97656 0.35938-1.9844 0.57031-3.0234 0.60547-0.96094 0.035156-1.9219-0.074219-2.8633-0.26562-0.88672-0.17969-1.8867-0.69141-2.7773-0.69141-0.91016 1.6367-2.5781 3.2891-2.2695 5.3125 0.15234 1.0117 0.64453 1.9961 1.1094 2.8945 0.25 0.48438 0.52344 0.95703 0.8125 1.418 0.19531 0.3125 0.67969 0.75 0.68359 1.1328h-3.4102c-0.76562-2.3008-0.99219-4.8789-3.1758-6.5625-0.47266 1.0781-0.66797 2.3281-0.45703 3.4922 0.19922 1.1211 0.92578 2.0273 1.332 3.0703h-3.1289c-1.1445-1.3281-0.50781-3.0547-0.58984-4.6367-0.050781-0.92578-0.35547-1.7578-0.5-2.6562-0.14844-0.91406 0.17188-1.5352 0.60938-2.3008 0.88281-1.5391 0.52734-3.0273-0.058594-4.5938-0.63281-1.6875-1.1445-3.4219-1.1914-5.2344-0.98047 1.7773-0.49219 4.0352 0.054687 5.8516 0.58594 1.9531-0.30469 3.4844-1.125 5.207 0.019532-1.1953-0.51953-2.1836-0.91406-3.2734-0.46484-1.2812 0.26562-2.0547 0.58984-3.2539 0.30859-1.1445 0.125-2.2617 0.19141-3.4258 0.050781-0.87891 0.082031-2.2617 0.67969-3.3828 0.33594-0.62891 0.89453-1.1055 1.5508-1.3789 2.1367-0.89062 4.2656-1.8555 6.5508-2.2852 2.5078-0.47656 5.0859-0.36328 7.6289-0.375 1.2812-0.007813 2.5664 0.023437 3.8477-0.019531 1.2422-0.042969 2.1914-0.54688 3.3633-0.84375 1.2969-0.32812 2.2656 0.10156 3.5039 0.35547 1.3594 0.27734 2.7305-0.10937 4.0469-0.41797-0.67188-0.71484-1.25-1.4219-1.0898-2.4492 0.99219-0.62891 1.832 0.36719 2.6172 0.92578 1.5352-0.14453 2.6406 0.003906 3.6094 1.293 0.41016 0.54688 0.80859 1.0547 1.3633 1.4609 0.3125 0.23047 0.66016 0.44531 1.0352 0.55078 0.38281 0.10547 0.79297 0.046875 1.1562 0.22656 0.46484 1.0273 0.17188 2.1094-0.97656 2.4219-1.3125 0.35547-2.2305 0.41797-3.082 1.6172-0.38281 0.54297-0.70313 1.0547-1.2891 1.4102-0.53516 0.32812-1.1016 0.46875-1.5352 0.96094-0.83984 0.95703-1.582 2.5391-1.5195 3.8203 0.0625 1.293-0.054688 2.1406-1.1562 2.9531-1.0117 0.74609-1.2812 1.9336-1.832 3.0234-0.64844 1.2734-1.0508 2.7305-0.94531 4.168 0.11719 1.625 0.95703 2.9141 1.7891 4.2734z"/>
  <path d="m49.461 17.684c4.1094 3.2695 8.1602 6.4961 12.215 9.7188 6.707 5.332 13.418 10.66 20.125 15.988 0.71875 0.57031 1.4414 1.1367 2.1602 1.707 0.57422 0.45703 0.65234 0.77344 0.29297 1.1992-0.41016 0.48438-0.82812 0.34375-1.2539 0-2.2383-1.7852-4.4766-3.5625-6.7188-5.3438-5.4336-4.3203-10.867-8.6406-16.305-12.961-3.2969-2.6211-6.5977-5.2461-9.8945-7.8633-0.20312-0.16016-0.41797-0.30469-0.62891-0.45703-4.7266 3.7617-9.4297 7.5-14.129 11.242-6.3438 5.0508-12.688 10.105-19.031 15.156-0.10156 0.082032-0.21094 0.15625-0.3125 0.23828-0.41016 0.3125-0.80859 0.33984-1.1328-0.10547-0.3125-0.42578-0.21875-0.80469 0.19922-1.1328 2.0156-1.6094 4.0195-3.2305 6.0391-4.8359 9.2539-7.3633 18.508-14.719 27.766-22.078 0.18359-0.15625 0.375-0.29297 0.60938-0.47266z"/>
  <path d="m18 82.23c0.125-0.45703 0.47266-0.64453 0.79297-0.85156 2.0938-1.3438 4.3945-2.2344 6.75-2.9805 4.4492-1.4141 9.0039-2.2969 13.684-2.4688 0.74609-0.027344 1.4883 0.011718 2.2266 0.074218 0.27734 0.023438 0.56641 0.054688 0.77344 0.32422-0.24609 0.39062-0.67187 0.47266-1.0547 0.58984-2.4805 0.77734-5.0391 1.2266-7.5742 1.7656-4.6289 0.98438-9.1992 2.2031-13.777 3.3984-0.57422 0.15234-1.1602 0.35547-1.8203 0.14844z"/>
  <path d="m67.734 76.277c-0.38281 0.37109-0.82422 0.36719-1.25 0.375-3.2773 0.0625-6.543 0.26953-9.7891 0.77734-2.9961 0.46875-5.9414 1.1797-8.8828 1.9023-0.96094 0.23438-0.97266 0.23047-1.4766 0.015625 0.097656-0.44922 0.46875-0.64844 0.80859-0.86328 2.0898-1.3203 4.4023-2.0938 6.7812-2.6758 3.8398-0.94141 7.7148-1.1797 11.621-0.46484 1.0938 0.20703 1.6641 0.44531 2.1875 0.93359z"/>
  <path d="m28.211 73.426c-0.30469 0.49219-0.71094 0.66406-1.1016 0.85156-2.6328 1.2617-5.4414 1.9844-8.2656 2.6328-2.8086 0.64453-5.6445 1.1445-8.5195 1.4023-0.51562 0.046875-1.043 0.15625-1.5586-0.14062 0.097656-0.46094 0.50781-0.56641 0.83984-0.73047 2.0234-1.0039 4.1836-1.6328 6.3555-2.1953 3.2734-0.85156 6.5742-1.5781 9.9453-1.9258 0.74219-0.082031 1.5039-0.23047 2.3047 0.10547z"/>
  <path d="m46.961 63.777c6.8867 1.2969 6.4688 0.54688 9.2266-0.20703 0.054688 1.0703 0.1875 2.125 0.51562 3.2109h-11.156c0.23438-1.1562 0.98047-1.9883 1.4141-3.0039z"/>
  <path d="m72.004 74.383c2.2695-1.8125 12.277-0.78906 13.484 1.043-0.36719 0.37891-0.875 0.37891-1.3242 0.41016-3.7422 0.26953-7.4492 0.019531-11.098-0.89453-0.37109-0.09375-0.76562-0.18359-1.0625-0.55859z"/>
  <path d="m5.6172 43.547c-0.007813-0.66406 0.26172-1.2109 0.58203-1.7188 1.8242-2.8945 4.3711-4.8281 7.6875-5.7266 1-0.26953 2.0195-0.39062 3.0508-0.27344 0.60156 0.070313 1.1836 0.23828 1.6055 0.80078-0.41406 0.36719-0.89453 0.35547-1.3281 0.36328-3.7148 0.058593-6.6523 1.6953-9.1055 4.3711-0.58984 0.64453-1.1055 1.3594-1.8164 1.8867-0.17578 0.12891-0.31641 0.31641-0.67578 0.29688z"/>
  <path d="m7.3164 72.445c0.32812-0.5 0.82812-0.62109 1.2891-0.77344 2.8867-0.96484 5.875-1.293 8.9023-1.3086 0.74219-0.003906 1.4805 0.085938 2.2227 0.12891 0.30859 0.019531 0.58984 0.11328 0.89844 0.26562-0.16797 0.39844-0.52344 0.41797-0.80859 0.5-1.6172 0.47266-3.2852 0.6875-4.9492 0.91797-1.7969 0.25-3.6016 0.40234-5.4141 0.5-0.70703 0.035157-1.4297 0.12109-2.1406-0.23047z"/>
  <path d="m18.98 40.047c-0.50781 0.56641-1.2305 0.64062-1.8945 0.73047-2.2266 0.29688-4.0938 1.2617-5.6992 2.8125-0.5 0.48047-1.0547 0.91406-1.7773 1.0391-0.23438-0.34766 0-0.61328 0.14062-0.85547 1.3281-2.2578 3.3203-3.5859 5.8594-4.1211 0.90234-0.19141 1.8203-0.21875 2.7305-0.015625 0.25 0.050781 0.50781 0.10938 0.64062 0.41016z"/>
  <path d="m94.477 44.871c-0.32812 0.03125-0.53906-0.21094-0.75781-0.39844-0.70312-0.62109-1.3828-1.2734-2.0938-1.8867-1.457-1.25-3.1758-1.8672-5.0781-2.0273-0.48828-0.039063-1.0039-0.046875-1.4258-0.4375 0.36719-0.49609 0.91406-0.52344 1.4102-0.57812 2.875-0.32031 6.9062 2.1719 7.9062 4.8711 0.050781 0.125 0.16797 0.26563 0.039062 0.45703z"/>
  <path d="m92.395 46.305c-0.67188 0.023437-1.1523-0.19531-1.5508-0.51953-1.8125-1.4609-3.8438-2.0898-6.1602-1.707-0.30078 0.050781-0.60156 0-0.88672-0.21484 0.17578-0.49219 0.59766-0.67969 1.0234-0.80859 2.0547-0.625 3.9141-0.10938 5.6328 1.0547 0.79297 0.53906 1.5 1.1797 1.9414 2.1953z"/>
  <path d="m20.5 38.551c0.38672-1.9922 3.7266-4.043 5.1758-3.1016-1.9766 0.72266-3.5078 2.0195-5.1758 3.1016z"/>
  <path d="m80.293 40.418c1.2734-0.71875 3.0664-0.097657 3.7227 1.332-1.25-0.75391-2.5234-0.9375-3.7227-1.332z"/>
 </g>
</svg>
