<?xml version="1.0" encoding="UTF-8"?>
<svg width="100pt" height="100pt" version="1.1" viewBox="0 0 100 100" xmlns="http://www.w3.org/2000/svg">
 <g>
  <path d="m68.234 25.172c-3.6094-2.5625-5.7656-6.7344-5.7656-11.156v-3.3125h0.26562c1.9062 0 3.4531-1.5469 3.4531-3.4531v-2.2188c0-1.9062-1.5469-3.4531-3.4531-3.4531h-25.469c-1.9062 0-3.4531 1.5469-3.4531 3.4531v2.2188c0 1.9062 1.5469 3.4531 3.4531 3.4531h0.26562v3.3125c0 4.4219-2.1562 8.5938-5.7656 11.156-3.2812 2.3281-5.2344 6.125-5.2344 10.156v52.938c0 5.5938 4.5625 10.156 10.156 10.156h26.625c5.5938 0 10.156-4.5625 10.156-10.156v-52.938c0-4.0312-1.9531-7.8281-5.2344-10.156zm-33.891 50h31.312v13.094c0 1.2969-1.0469 2.3438-2.3438 2.3438h-26.625c-1.2969 0-2.3438-1.0469-2.3438-2.3438zm-4.6875-3.125v-31.547h40.688v31.531h-40.688zm36-34.672h-31.312v-2.0625c0-1.5 0.73438-2.9062 1.9531-3.7812 5.2969-3.7656 8.5938-9.7188 9.0156-16.156h9.3906c0.42188 6.4375 3.7188 12.391 9 16.156 1.2188 0.85938 1.9531 2.2812 1.9531 3.7812zm-28.719-30.125v-2.2188c0-0.1875 0.14062-0.32812 0.32812-0.32812h25.453c0.1875 0 0.32812 0.15625 0.32812 0.32812v2.2188c0 0.1875-0.14062 0.32812-0.32812 0.32812h-25.453c-0.17188 0-0.32812-0.14062-0.32812-0.32812zm-3.3594 20.469c4.4375-3.1406 7.0781-8.2656 7.0781-13.703v-3.3125h18.688v3.3125c0 5.4375 2.6406 10.562 7.0781 13.703 2.4531 1.75 3.9219 4.5781 3.9219 7.5938v2.0625h-1.5625v-2.0625c0-2.5156-1.2188-4.875-3.2656-6.3281-4.8438-3.4375-7.7344-9.0469-7.7344-14.984v-0.17188c0-0.85938-0.70312-1.5625-1.5625-1.5625h-12.438c-0.85938 0-1.5625 0.70312-1.5625 1.5625v0.1875c0 5.9375-2.8906 11.547-7.7344 14.984-2.0469 1.4531-3.2656 3.8125-3.2656 6.3281v2.0625h-1.5625v-2.0625c0-3.0156 1.4688-5.8594 3.9219-7.6094zm29.734 67.578h-26.625c-3.875 0-7.0312-3.1562-7.0312-7.0312v-13.094h1.5625v13.094c0 3.0156 2.4531 5.4688 5.4688 5.4688h26.625c3.0156 0 5.4688-2.4531 5.4688-5.4688v-13.094h1.5625v13.094c0 3.875-3.1562 7.0312-7.0312 7.0312z"/>
  <path d="m60.203 45.453c-0.875-0.046875-1.6094 0.57812-1.6875 1.4375-0.14062 1.7969-1.0469 2.4688-1.7969 2.7344-0.25-0.5-0.54688-0.96875-0.90625-1.4062-1.4375-1.75-3.5469-2.7656-5.8125-2.7656s-4.375 1-5.8125 2.7656c-0.35938 0.4375-0.65625 0.90625-0.90625 1.4062-0.71875-0.26562-1.6562-0.95312-1.7969-2.7344-0.0625-0.85938-0.79688-1.4844-1.6875-1.4375-0.85938 0.078125-1.5 0.82812-1.4375 1.6875 0.28125 3.4375 2.3438 4.9688 4.1406 5.5156-0.03125 0.59375 0.015625 1.2031 0.14062 1.8125l1.0625 5.1719v2.4219c0 2.7969 2.2656 5.0625 5.0625 5.0625h2.4531c2.7969 0 5.0625-2.2656 5.0625-5.0625v-2.4219l1.0625-5.1719c0.125-0.60938 0.17188-1.2031 0.14062-1.8125 1.7969-0.54688 3.8594-2.0781 4.1406-5.5156 0.078125-0.85938-0.5625-1.625-1.4219-1.6875zm-10.203 3.1094c1.3281 0 2.5625 0.59375 3.3906 1.6094 0.84375 1.0312 1.1562 2.3594 0.89062 3.6406l-0.84375 4.0781h-6.9062l-0.84375-4.0781c-0.26562-1.2969 0.0625-2.625 0.89062-3.6406 0.85938-1.0156 2.0938-1.6094 3.4219-1.6094zm3.1562 13.484c0 1.0625-0.875 1.9375-1.9375 1.9375h-2.4531c-1.0625 0-1.9375-0.875-1.9375-1.9375v-1.0156h6.3281z"/>
  <path d="m47.938 53.781c0.85938 0 1.5625-0.70312 1.5625-1.5625v-0.40625c0-0.85938-0.70312-1.5625-1.5625-1.5625s-1.5625 0.70312-1.5625 1.5625v0.40625c0 0.875 0.70312 1.5625 1.5625 1.5625z"/>
  <path d="m52.062 53.781c0.85938 0 1.5625-0.70312 1.5625-1.5625v-0.40625c0-0.85938-0.70312-1.5625-1.5625-1.5625s-1.5625 0.70312-1.5625 1.5625v0.40625c0 0.875 0.70312 1.5625 1.5625 1.5625z"/>
 </g>
</svg>
