<?xml version="1.0" encoding="UTF-8"?>
<svg width="100pt" height="100pt" version="1.1" viewBox="0 0 100 100" xmlns="http://www.w3.org/2000/svg">
 <defs>
  <clipPath id="a">
   <path d="m18.512 28h62.977v44h-62.977z"/>
  </clipPath>
 </defs>
 <g clip-path="url(#a)">
  <path d="m50.52 28.168c-1.9727-0.042969-3.9414 0.17578-5.8555 0.66016-5.7227 1.4414-10.617 5.1406-13.57 10.254-3.5977 6.2305-3.8906 13.836-0.79297 20.328 14.07-2.0781 28.367-6.168 41.328-12.383-0.91406-6.6797-4.8672-12.562-10.703-15.938-3.168-1.832-6.7461-2.8359-10.406-2.9219zm25.387 13.086c-0.89062 0.027344-1.875 0.09375-2.9492 0.20312 0.011719 0.085938 0.023438 0.17578 0.035157 0.26562 4.5078-0.19141 6.2266 0.77734 4.7383 2.6758-1.4258 1.8086-5.6328 4.3047-11.691 6.9336-6.0625 2.6328-13.48 5.1875-20.621 7.1016-7.1445 1.9141-13.43 3.0312-17.473 3.1055-4.043 0.078126-5.5156-0.89844-4.0898-2.707 0.60156-0.75 1.6875-1.6289 3.2109-2.5938 0.003906-0.24609 0.015625-0.49219 0.027344-0.74219-4.0391 2.0586-6.8008 3.9297-7.9688 5.3945-1.6367 2.0742 0.046875 3.1914 4.6836 3.1055 4.6328-0.085938 11.84-1.3672 20.031-3.5625 8.1914-2.1953 16.699-5.125 23.645-8.1406 6.9492-3.0195 11.77-5.8789 13.406-7.9531 1.6523-2.1094-0.14453-3.2227-4.9844-3.0859zm-4.2891 11.801c-12.297 5.2656-24.828 9.2773-37.641 11.773 1.4883 1.6094 3.2148 2.9883 5.1133 4.0859 5.0156 2.8945 10.977 3.6797 16.57 2.1797s10.363-5.1602 13.258-10.176c1.3945-2.4219 2.3125-5.0938 2.6992-7.8633z"/>
 </g>
</svg>
