<?xml version="1.0" encoding="UTF-8"?>
<svg width="100pt" height="100pt" version="1.1" viewBox="0 0 100 100" xmlns="http://www.w3.org/2000/svg">
 <g>
  <path d="m86.141 59.98c0 2.1328 1.2812 4.0547 3.2539 4.8711 1.9688 0.81641 4.2383 0.36328 5.7461-1.1445 1.5078-1.5078 1.957-3.7734 1.1406-5.7461-0.81641-1.9688-2.7383-3.2539-4.8711-3.2539-2.9102 0.003907-5.2695 2.3633-5.2695 5.2734zm5.2695-2.9297c1.1836 0 2.2539 0.71484 2.707 1.8086 0.45312 1.0938 0.20312 2.3516-0.63672 3.1914-0.83594 0.83594-2.0977 1.0859-3.1914 0.63281s-1.8047-1.5195-1.8047-2.7031c0-1.6172 1.3086-2.9297 2.9258-2.9297z"/>
  <path d="m60.301 57.012c2.0273-0.82812 3.0938-3.0547 2.4648-5.1484-0.625-2.0977-2.7422-3.3711-4.8867-2.9492-2.1484 0.42188-3.6211 2.4023-3.4062 4.582 0.21094 2.1758 2.043 3.832 4.2305 3.832 0.54688-0.003906 1.0898-0.10938 1.5977-0.31641zm-3.3633-3.2148c-0.29297-0.71094-0.125-1.5273 0.42188-2.0703 0.54688-0.54297 1.3672-0.69922 2.0781-0.40234 0.70703 0.30078 1.168 0.99609 1.1641 1.7656-0.003906 0.76953-0.47266 1.4609-1.1836 1.7539-0.97656 0.39453-2.0859-0.074219-2.4805-1.0469z"/>
  <path d="m61.625 58.746c0.19531 0.48047 0.66016 0.79297 1.1758 0.79688 0.51562 0 0.98047-0.30469 1.1797-0.78125 0.20312-0.47656 0.09375-1.0234-0.26562-1.3906-0.36328-0.36719-0.91406-0.48047-1.3906-0.28516-0.3125 0.12891-0.5625 0.375-0.69531 0.6875-0.13281 0.30859-0.13281 0.66016-0.003906 0.97266z"/>
  <path d="m7.7422 15.531c1.8672 0.78516 4.0312 0.14453 5.1641-1.5352 1.1367-1.6797 0.92578-3.9258-0.5-5.3672-1.4258-1.4375-3.668-1.6719-5.3594-0.55469-1.6914 1.1172-2.3555 3.2734-1.5898 5.1484 0.42578 1.043 1.2461 1.875 2.2852 2.3086zm0.92578-5.6758c0.71484-0.29297 1.5312-0.125 2.0742 0.42188 0.53906 0.54688 0.69922 1.3672 0.40234 2.0781-0.30078 0.71094-0.99609 1.168-1.7656 1.1641-0.76953-0.003906-1.4609-0.47266-1.7539-1.1836-0.19141-0.46875-0.19141-0.99219 0.003906-1.457 0.19922-0.46875 0.57031-0.83594 1.0391-1.0234z"/>
  <path d="m14.082 8.6836c0.55859 0.23438 1.207 0.042968 1.5508-0.46094 0.33984-0.50391 0.27734-1.1758-0.14844-1.6094-0.42969-0.43359-1.1016-0.50391-1.6094-0.16797-0.50781 0.33203-0.70703 0.98047-0.48047 1.543 0.12891 0.3125 0.375 0.5625 0.6875 0.69531z"/>
  <path d="m56.355 76.848c-2.1328 0-4.0547 1.2852-4.8711 3.2539-0.81641 1.9727-0.36719 4.2383 1.1406 5.7461 1.5078 1.5078 3.7773 1.9609 5.7461 1.1445 1.9727-0.81641 3.2539-2.7383 3.2539-4.8711-0.003906-2.9102-2.3594-5.2695-5.2695-5.2734zm0 8.1992c-1.1836 0-2.2539-0.71094-2.707-1.8047-0.45313-1.0938-0.20313-2.3555 0.63672-3.1914 0.83594-0.83984 2.0938-1.0898 3.1914-0.63672 1.0938 0.45313 1.8047 1.5234 1.8047 2.707 0 1.6172-1.3086 2.9258-2.9258 2.9258z"/>
  <path d="m54.773 73.102c0 0.63672 0.38281 1.2148 0.97656 1.4609 0.58984 0.24219 1.2695 0.10938 1.7227-0.34375s0.58984-1.1328 0.34375-1.7227c-0.24609-0.59375-0.82031-0.97656-1.4609-0.97656-0.875 0-1.582 0.70703-1.582 1.582z"/>
  <path d="m56.355 89.559c-0.64062 0-1.2188 0.38672-1.4609 0.97656-0.24609 0.58984-0.10938 1.2734 0.33984 1.7227 0.45312 0.45313 1.1328 0.58984 1.7266 0.34375 0.58984-0.24219 0.97656-0.82031 0.97656-1.4609 0-0.87109-0.71094-1.582-1.582-1.582z"/>
  <path d="m48.914 82.121c0-0.64062-0.38281-1.2188-0.97656-1.4609-0.58984-0.24609-1.2695-0.10938-1.7227 0.33984-0.45312 0.45312-0.58594 1.1328-0.34375 1.7266 0.24609 0.58984 0.82422 0.97656 1.4609 0.97656 0.875 0 1.582-0.71094 1.582-1.582z"/>
  <path d="m65.375 80.539c-0.64062 0-1.2148 0.38672-1.4609 0.97656-0.24609 0.58984-0.10937 1.2695 0.34375 1.7227 0.44922 0.45312 1.1328 0.58984 1.7227 0.34375 0.58984-0.24609 0.97656-0.82031 0.97656-1.4609 0-0.875-0.70703-1.582-1.582-1.582z"/>
  <path d="m49.977 86.918c-0.42187-0.003907-0.82422 0.16406-1.1172 0.46094-0.53516 0.53516-0.61719 1.3711-0.19922 2 0.42188 0.625 1.2227 0.87109 1.9219 0.58203 0.69531-0.28906 1.0938-1.0312 0.94531-1.7695-0.14844-0.74219-0.79688-1.2734-1.5508-1.2734z"/>
  <path d="m62.734 77.324c0.75391 0 1.4023-0.53125 1.5508-1.2734 0.14844-0.73828-0.25-1.4805-0.94531-1.7695-0.69922-0.28906-1.5039-0.046875-1.9219 0.58203-0.41797 0.625-0.33594 1.4648 0.19531 1.9961 0.29688 0.30078 0.69922 0.46484 1.1211 0.46484z"/>
  <path d="m49.977 77.324c0.64063 0 1.2148-0.38672 1.4609-0.97656s0.10938-1.2695-0.34375-1.7227c-0.37109-0.375-0.90625-0.53516-1.4258-0.43359-0.51953 0.10156-0.95312 0.45703-1.1523 0.94531-0.20312 0.48828-0.14844 1.0469 0.14453 1.4844 0.29297 0.44141 0.78906 0.70312 1.3164 0.70312z"/>
  <path d="m63.852 87.379c-0.45312-0.45312-1.1328-0.58594-1.7227-0.34375-0.59375 0.24609-0.98047 0.82422-0.98047 1.4648 0 0.63672 0.38672 1.2148 0.98047 1.4609 0.58984 0.24219 1.2695 0.10937 1.7227-0.34375 0.30078-0.29688 0.46875-0.69922 0.46875-1.1172 0-0.42188-0.16797-0.82422-0.46875-1.1211z"/>
  <path d="m81.016 48.91c0 0.63672 0.38281 1.2148 0.97656 1.4609 0.58984 0.24219 1.2695 0.10938 1.7227-0.34375s0.58594-1.1328 0.34375-1.7227c-0.24609-0.59375-0.82422-0.97656-1.4609-0.97656-0.875 0-1.582 0.70703-1.582 1.582z"/>
  <path d="m57.379 8.668c0.64062 0 1.2188-0.38672 1.4609-0.97656 0.24609-0.58984 0.10938-1.2695-0.33984-1.7227-0.45312-0.45312-1.1328-0.58984-1.7266-0.34375-0.58984 0.24609-0.97656 0.82031-0.97656 1.4609 0 0.875 0.71094 1.582 1.582 1.582z"/>
  <path d="m9.7578 62.438c0-0.63672-0.38281-1.2148-0.97656-1.4609-0.58984-0.24219-1.2695-0.10937-1.7227 0.34375-0.45312 0.45313-0.58984 1.1328-0.34375 1.7227 0.24609 0.59375 0.82031 0.97656 1.4609 0.97656 0.875 0 1.582-0.70703 1.582-1.582z"/>
  <path d="m7.0938 30.664c0 2.1094-3.1641 2.1094-3.1641 0 0-2.1094 3.1641-2.1094 3.1641 0"/>
  <path d="m70.91 94.891c-0.64062 0-1.2148 0.38281-1.4609 0.97656-0.24609 0.58984-0.10938 1.2695 0.34375 1.7227s1.1328 0.58984 1.7227 0.34375 0.97656-0.82422 0.97656-1.4609c0-0.875-0.70703-1.582-1.582-1.582z"/>
  <path d="m37.492 54.707c-0.63672 0-1.2148 0.38672-1.4609 0.97656s-0.10938 1.2734 0.34375 1.7227c0.45312 0.45312 1.1328 0.58984 1.7227 0.34375 0.59375-0.24609 0.97656-0.82031 0.97656-1.4609 0-0.875-0.70703-1.582-1.582-1.582z"/>
  <path d="m93.668 33.68c0.63672 0 1.2148-0.38672 1.4609-0.97656 0.24219-0.58984 0.10938-1.2734-0.34375-1.7227-0.45312-0.45312-1.1328-0.58984-1.7227-0.34375-0.59375 0.24609-0.97656 0.82031-0.97656 1.4609 0 0.875 0.70703 1.582 1.582 1.582z"/>
  <path d="m43.234 28.262c-0.64062 0-1.2188 0.38672-1.4609 0.97656-0.24609 0.58984-0.10938 1.2734 0.33984 1.7227 0.45312 0.45312 1.1328 0.58984 1.7266 0.34375 0.58984-0.24609 0.97656-0.82031 0.97656-1.4609 0-0.875-0.71094-1.582-1.582-1.582z"/>
  <path d="m78.07 59.141c0.15625 0.48047 0.60547 0.80469 1.1094 0.80469 0.50781 0 0.95312-0.32422 1.1133-0.80469 0.45703-1.3594 1.5234-2.4297 2.8828-2.8906 0.47656-0.16016 0.80078-0.60547 0.80078-1.1094 0-0.50781-0.32422-0.95312-0.80078-1.1133-1.3594-0.46094-2.4258-1.5273-2.8828-2.8906-0.16016-0.48047-0.60547-0.80078-1.1133-0.80078-0.50391 0-0.95313 0.32031-1.1094 0.80078-0.45703 1.3633-1.5234 2.4297-2.8828 2.8906-0.47656 0.16016-0.80078 0.60547-0.80078 1.1133 0 0.50391 0.32422 0.94922 0.80078 1.1094 1.3594 0.46094 2.4258 1.5312 2.8828 2.8906zm1.1133-5.1953h-0.003906c0.34766 0.44531 0.75 0.84766 1.1914 1.1953-0.44141 0.34766-0.84375 0.74609-1.1914 1.1914-0.34375-0.44531-0.74609-0.84375-1.1875-1.1914 0.44141-0.34766 0.84375-0.75 1.1875-1.1953z"/>
  <path d="m50.859 41.207c1.3594 0.46094 2.4258 1.5273 2.8828 2.8906 0.15625 0.48047 0.60547 0.80078 1.1094 0.80078 0.50781 0 0.95313-0.32031 1.1133-0.80078 0.45703-1.3594 1.5234-2.4297 2.8828-2.8906 0.47656-0.16016 0.80078-0.60547 0.80078-1.1094s-0.32422-0.95312-0.80078-1.1133c-1.3594-0.46094-2.4258-1.5273-2.8828-2.8906-0.16016-0.48047-0.60547-0.80078-1.1133-0.80078-0.50391 0-0.95312 0.32031-1.1094 0.80078-0.45703 1.3633-1.5234 2.4297-2.8828 2.8906-0.47656 0.16016-0.80078 0.60547-0.80078 1.1094 0 0.50781 0.32422 0.95312 0.80078 1.1133zm3.9922-2.3047c0.34766 0.44531 0.75 0.84375 1.1914 1.1914-0.44141 0.34766-0.84375 0.75-1.1914 1.1953-0.34766-0.44531-0.74609-0.84766-1.1914-1.1953 0.44531-0.34766 0.84375-0.74609 1.1914-1.1914z"/>
  <path d="m7 47.992c0.15625 0.48047 0.60547 0.80469 1.1094 0.80469 0.50781 0 0.95312-0.32422 1.1133-0.80469 0.45703-1.3594 1.5234-2.4297 2.8828-2.8906 0.47656-0.16016 0.80078-0.60547 0.80078-1.1094 0-0.50391-0.32422-0.95313-0.80078-1.1133-1.3594-0.45703-2.4258-1.5273-2.8828-2.8906-0.16016-0.47656-0.60547-0.80078-1.1133-0.80078-0.50391 0-0.95312 0.32422-1.1094 0.80078-0.45703 1.3633-1.5234 2.4336-2.8828 2.8906-0.47656 0.16016-0.80078 0.60938-0.80078 1.1133 0 0.50391 0.32422 0.94922 0.80078 1.1094 1.3594 0.46094 2.4258 1.5312 2.8828 2.8906zm1.1133-5.1953h-0.003906c0.34766 0.44531 0.75 0.84766 1.1914 1.1953-0.44141 0.34766-0.84375 0.74609-1.1914 1.1914-0.34766-0.44531-0.74609-0.84375-1.1875-1.1914 0.44141-0.34766 0.83984-0.75 1.1875-1.1953z"/>
  <path d="m37.117 93.105c-1.3633-0.45703-2.4297-1.5273-2.8828-2.8906-0.16016-0.47656-0.60938-0.80078-1.1133-0.80078s-0.95312 0.32422-1.1094 0.80078c-0.45703 1.3633-1.5234 2.4336-2.8828 2.8906-0.48047 0.16016-0.80078 0.60938-0.80078 1.1133s0.32031 0.95312 0.80078 1.1094c1.3594 0.46094 2.4258 1.5312 2.8828 2.8906v0.003906c0.15625 0.47656 0.60547 0.80078 1.1094 0.80078s0.95312-0.32422 1.1133-0.80078c0.45312-1.3633 1.5195-2.4336 2.8828-2.8906v-0.003906c0.47656-0.15625 0.79687-0.60547 0.79687-1.1094s-0.32031-0.95312-0.79687-1.1133zm-3.9922 2.3047h-0.003906c-0.34766-0.44141-0.74609-0.84375-1.1914-1.1914 0.44531-0.34766 0.84375-0.74609 1.1914-1.1914 0.34766 0.44531 0.74609 0.84375 1.1914 1.1914-0.44531 0.34766-0.84375 0.75-1.1914 1.1914z"/>
  <path d="m90.43 21.523c0.25391 0 0.5-0.082032 0.69922-0.23438l0.16406-0.125h0.003906c0.51562-0.38672 0.62109-1.1211 0.23438-1.6367-0.38672-0.51953-1.1211-0.625-1.6406-0.23828l-0.16406 0.125c-0.40234 0.30078-0.56641 0.82813-0.41016 1.3047 0.16016 0.48047 0.60938 0.80469 1.1133 0.80469z"/>
  <path d="m86.586 12.453c0.26172 0 0.51562-0.089844 0.72266-0.25l0.87891-0.6875v-0.003906c0.50781-0.39844 0.59766-1.1367 0.19922-1.6445-0.40234-0.50781-1.1367-0.59766-1.6484-0.19922l-0.87891 0.6875v0.003906c-0.39062 0.30469-0.54688 0.83203-0.38281 1.3047 0.16406 0.47266 0.60938 0.78906 1.1094 0.78906z"/>
  <path d="m70.16 33.266c0.48828 0.070313 0.97656 0.10547 1.4688 0.10547 2.1797 0 4.3008-0.70703 6.043-2.0156l11.168-8.3516c0.25391-0.18359 0.42188-0.46484 0.46875-0.77344 0.046875-0.30859-0.03125-0.625-0.21875-0.875-0.1875-0.25391-0.46875-0.41797-0.78125-0.46094-0.30859-0.042969-0.625 0.039063-0.87109 0.23047l-11.172 8.3516c-1.6523 1.2344-3.7266 1.7656-5.7695 1.4688-2.043-0.29297-3.8867-1.3867-5.1211-3.043-2.5742-3.4414-1.8711-8.3164 1.5742-10.891l14.34-10.723c0.25-0.18359 0.41797-0.46484 0.46484-0.77344 0.042969-0.30859-0.035156-0.62109-0.22266-0.87109s-0.46484-0.41406-0.77344-0.45703c-0.30859-0.046875-0.625 0.035156-0.87109 0.22266l-14.34 10.723h-0.003906c-3.2773 2.4531-4.7578 6.6406-3.7461 10.609 1.0078 3.9688 4.3125 6.9375 8.3633 7.5234z"/>
  <path d="m87.871 5.4922c0.26953 0 0.53125-0.089844 0.73828-0.26172l1.5156-1.2305c0.5-0.41016 0.57422-1.1445 0.16797-1.6445-0.40625-0.50391-1.1445-0.57812-1.6445-0.17578l-1.5156 1.2305c-0.38672 0.3125-0.53125 0.83594-0.36719 1.3047 0.16797 0.46484 0.60938 0.77734 1.1055 0.77734z"/>
  <path d="m83.027 9.4258c0.26953 0 0.53125-0.09375 0.73828-0.26172l2.1992-1.7852v-0.003906c0.50391-0.40625 0.57812-1.1445 0.17188-1.6484-0.40625-0.5-1.1445-0.57812-1.6484-0.16797l-2.1992 1.7852c-0.38672 0.3125-0.53516 0.83594-0.36719 1.3008 0.16406 0.46875 0.60938 0.78125 1.1055 0.78125z"/>
  <path d="m79.898 9.2852-1.9922 1.6172c-0.49609 0.41016-0.56641 1.1445-0.16016 1.6406 0.40234 0.5 1.1328 0.57812 1.6367 0.17969l1.9922-1.6172c0.50391-0.41016 0.58203-1.1484 0.17188-1.6484-0.40625-0.50391-1.1445-0.58203-1.6484-0.17188z"/>
  <path d="m93.672 12.227c0.27734 0 0.54297-0.097656 0.75391-0.27344l1.3711-1.1562h0.003906c0.24219-0.19922 0.39453-0.48828 0.42188-0.79688 0.027344-0.3125-0.070312-0.625-0.26953-0.86328-0.20312-0.23828-0.49219-0.38672-0.80469-0.41406-0.3125-0.023437-0.62109 0.078125-0.85938 0.28125l-1.3711 1.1562v-0.003906c-0.375 0.32031-0.51562 0.83594-0.34766 1.3008 0.17188 0.46094 0.60938 0.76953 1.1016 0.76953z"/>
  <path d="m86.586 18.191c0.27344 0 0.54297-0.097656 0.75391-0.27734l4.668-3.9297v0.003906c0.24219-0.19922 0.39453-0.48828 0.42188-0.80078 0.027343-0.30859-0.070313-0.62109-0.26953-0.85938-0.20312-0.24219-0.49219-0.39062-0.80469-0.41406-0.3125-0.027343-0.62109 0.074219-0.85547 0.28125l-4.668 3.9297-0.003906-0.003906c-0.375 0.31641-0.51172 0.83594-0.34375 1.3008 0.16797 0.46094 0.60938 0.76953 1.1016 0.76953z"/>
  <path d="m83.723 20.598c0.27734 0 0.54297-0.097656 0.75391-0.27344l0.76953-0.64844c0.48828-0.41797 0.54688-1.1523 0.13281-1.6445-0.41406-0.49219-1.1445-0.55859-1.6406-0.14844l-0.76953 0.64844c-0.375 0.31641-0.51562 0.83594-0.34766 1.2969 0.17188 0.46484 0.60938 0.76953 1.1016 0.76953z"/>
  <path d="m88.898 9.4648c0.19141 0.24219 0.47266 0.40234 0.78125 0.4375 0.30859 0.039062 0.62109-0.046875 0.86328-0.23828l5.6328-4.418 0.003907-0.003906c0.50781-0.39844 0.59766-1.1367 0.19922-1.6445-0.40234-0.50781-1.1367-0.59766-1.6484-0.19922l-5.6328 4.4219c-0.24609 0.19141-0.40234 0.47266-0.44141 0.78125-0.035156 0.30859 0.050781 0.61719 0.24219 0.86328z"/>
  <path d="m79.371 18.465 5.543-4.3867c0.50781-0.40234 0.59375-1.1406 0.19531-1.6484-0.40234-0.50391-1.1406-0.58984-1.6484-0.19141l-5.543 4.3906c-0.5 0.40234-0.58203 1.1328-0.18359 1.6367 0.39844 0.50781 1.1289 0.59375 1.6367 0.19922z"/>
  <path d="m84.188 4.6992c0.5625 0 1.0664-0.33984 1.2812-0.85547 0.21484-0.51953 0.097656-1.1172-0.29688-1.5117-0.39844-0.39844-0.99609-0.51562-1.5117-0.30078-0.51953 0.21484-0.85938 0.71875-0.85547 1.2812 0 0.76562 0.61719 1.3828 1.3828 1.3867z"/>
  <path d="m71.512 16.863c-2.5898 0-4.9258 1.5625-5.918 3.957-0.99219 2.3945-0.44531 5.1484 1.3867 6.9805s4.5898 2.3789 6.9844 1.3906c2.3906-0.99219 3.9531-3.3281 3.9531-5.9219-0.003907-3.5352-2.8711-6.4023-6.4062-6.4062zm0 10.469c-1.6445 0-3.125-0.98828-3.7539-2.5078-0.62891-1.5195-0.28125-3.2656 0.88281-4.4258 1.1602-1.1641 2.9062-1.5117 4.4258-0.88281 1.5195 0.62891 2.5078 2.1094 2.5078 3.7539 0 2.2422-1.8203 4.0625-4.0625 4.0625z"/>
  <path d="m70.359 24.406c-0.50781 0-0.96094 0.30469-1.1562 0.77344-0.19141 0.46484-0.085937 1.0039 0.26953 1.3594 0.35938 0.35938 0.89453 0.46484 1.3633 0.26953 0.46484-0.19141 0.76953-0.64844 0.76953-1.1523 0-0.6875-0.55859-1.2461-1.2461-1.25z"/>
  <path d="m70.684 22.27c0-0.50391-0.30469-0.96094-0.76953-1.1523-0.46875-0.19531-1.0039-0.085938-1.3633 0.26953-0.35547 0.35547-0.46484 0.89453-0.26953 1.3594 0.19141 0.46875 0.64844 0.77344 1.1523 0.77344 0.69141 0 1.25-0.55859 1.25-1.25z"/>
  <path d="m72.805 24.426c0 0.50391 0.30078 0.96094 0.76953 1.1523 0.46484 0.19531 1.0039 0.085937 1.3594-0.26953 0.35938-0.35547 0.46484-0.89453 0.27344-1.3594-0.19531-0.46875-0.64844-0.77344-1.1523-0.77344-0.69141 0-1.25 0.55859-1.25 1.25z"/>
  <path d="m29.605 77.734h-0.019531 0.003906c-0.64453 0.007813-1.1641 0.52344-1.1719 1.168-0.074219 5.2656-4.2891 9.5312-9.5547 9.668-0.30078 0-0.59375 0.11719-0.80469 0.33203-0.21484 0.21484-0.33203 0.50391-0.32812 0.80859 0.003906 0.30078 0.12891 0.58984 0.34766 0.79687 0.21875 0.21094 0.51172 0.32031 0.8125 0.3125h0.027344c3.1211-0.015624 6.1094-1.2812 8.293-3.5078 2.2344-2.2305 3.5078-5.2422 3.5508-8.3984 0.007812-0.30859-0.11328-0.60937-0.32812-0.83203-0.21875-0.22266-0.51562-0.34766-0.82812-0.34766z"/>
  <path d="m24.32 71.121c0.15625 0.15625 0.30859 0.32031 0.45313 0.48438 0.42578 0.48828 1.1641 0.53906 1.6523 0.11328s0.53906-1.168 0.11328-1.6562c-0.17578-0.20312-0.36719-0.40234-0.55859-0.59766v0.003906c-2.2734-2.2812-5.3594-3.5625-8.5781-3.5625s-6.3047 1.2812-8.5781 3.5625c-4.7266 4.7539-4.7266 12.434 0 17.188 0.45703 0.46094 1.1992 0.46094 1.6562 0.003906 0.46094-0.45703 0.46094-1.1992 0.003906-1.6602-3.8164-3.8359-3.8164-10.039 0-13.879 1.832-1.8398 4.3242-2.8711 6.918-2.8711 2.5977 0 5.0859 1.0312 6.918 2.8711z"/>
  <path d="m23.508 82.219c0.17578 0.03125 0.35547 0.046875 0.53516 0.046875 1.0898 0 2.1094-0.53125 2.7305-1.4219 0.625-0.89062 0.77734-2.0273 0.40625-3.0508 3.8789-5.3906 4.7422-9.6211 2.4141-11.949-0.79297-0.79297-2.2656-1.6328-4.7891-1.1289h0.003906c-0.63672 0.12891-1.0469 0.74609-0.92188 1.3789 0.12891 0.63672 0.74609 1.0469 1.3789 0.91797 1.8242-0.36328 2.4609 0.27344 2.6719 0.48438 1.3125 1.3164 0.41016 4.5117-2.3398 8.4766v0.003906c-1.3984-0.73828-3.1172-0.39453-4.1211 0.82031-1.0078 1.2148-1.0234 2.9688-0.042968 4.2031-0.17969 0.1875-0.36328 0.375-0.54688 0.5625-4.5742 4.5781-9.5391 7.6562-12.359 7.6562-0.71875 0-1.2617-0.19531-1.6602-0.59375-0.63281-0.63281-0.76172-1.6836-0.38281-3.1172 0.16406-0.625-0.21094-1.2656-0.83594-1.4297-0.62891-0.16406-1.2695 0.21094-1.4336 0.83594-0.75 2.8633 0.125 4.5 0.99219 5.3672 0.84766 0.85156 1.9648 1.2812 3.3203 1.2812 4.1914 0 9.9883-4.3125 14.016-8.3516 0.32812-0.32422 0.64844-0.65625 0.96484-0.99219zm0.53906-4.2891-0.003906-0.003907c0.40625 0 0.76953 0.24219 0.92578 0.61328 0.15625 0.37109 0.074219 0.80469-0.21094 1.0898-0.28516 0.28516-0.71484 0.37109-1.0898 0.21875-0.37109-0.15625-0.61328-0.51953-0.61328-0.92188 0-0.55078 0.44141-0.99609 0.98828-1z"/>
  <path d="m10.164 81.18c-0.55078 0.33594-0.72656 1.0586-0.39062 1.6094l0.046874 0.078126c0.16406 0.26562 0.42578 0.45703 0.73047 0.52734 0.30469 0.070313 0.625 0.019531 0.89062-0.14453 0.26172-0.16406 0.45312-0.42969 0.52344-0.73438 0.066406-0.30469 0.015625-0.62109-0.15234-0.88672l-0.039062-0.058594v-0.003906c-0.33594-0.55078-1.0586-0.72266-1.6094-0.38672z"/>
  <path d="m84.293 79.695c-1.9766 0.80859-3.2695 2.7227-3.2812 4.8555-0.011719 2.1328 1.2617 4.0625 3.2266 4.8867 1.9688 0.82812 4.2383 0.38672 5.7539-1.1094 1.5156-1.5 1.9766-3.7656 1.1719-5.7422-0.51953-1.3008-1.5391-2.3359-2.832-2.8789-1.2891-0.54688-2.7461-0.54688-4.0391-0.011719zm4.6914 6.0156c-0.54297 1.2891-1.918 2.0156-3.2891 1.7344-1.3672-0.27734-2.3477-1.4844-2.3398-2.8828 0.007812-1.3984 1-2.5938 2.3711-2.8594 1.3711-0.26562 2.7422 0.47266 3.2695 1.7695 0.29297 0.71875 0.28906 1.5234-0.011719 2.2422z"/>
  <path d="m89.918 75.938c-4.125-1.7344-8.8945-0.3125-11.398 3.3906-2.5078 3.707-2.043 8.6641 1.1016 11.844 3.1445 3.1758 8.0977 3.6914 11.828 1.2266 3.7305-2.4648 5.1992-7.2188 3.5117-11.359-0.93359-2.3086-2.75-4.1445-5.043-5.1016zm2.8477 11.363h-0.003906c-1.2969 3.0938-4.6016 4.8359-7.8867 4.1641s-5.6367-3.5703-5.6211-6.9258c0.019532-3.3516 2.4023-6.2266 5.6953-6.8633s6.5742 1.1406 7.8438 4.2461c0.70703 1.7266 0.69922 3.6641-0.03125 5.3789z"/>
  <path d="m39.449 12.168c0.85547-2.25 0.44141-4.7812-1.0859-6.6406-1.5273-1.8594-3.9336-2.7578-6.3047-2.3516-2.4727-2.1016-4.2969-2.7031-5.4297-1.7773-0.36328 0.29687-1.4648 1.1953 0.070313 4.5391 0.13281 0.29297 0.28516 0.59766 0.45312 0.90625-0.089844 0.17969-0.17188 0.36719-0.24219 0.55859-0.78125 2.0625-0.5 4.375 0.75391 6.1914 1.25 1.8125 3.3125 2.8984 5.5195 2.9023 0.61719 0 1.2305-0.089844 1.8281-0.25781 0.078125 0.058594 0.15625 0.12109 0.23438 0.17578 1.2891 0.94531 2.3555 1.4141 3.2188 1.4141v0.003906c0.42188 0.003907 0.83594-0.125 1.1758-0.375 1.3125-0.96094 0.64062-3.1875-0.28125-5.0703 0.03125-0.070313 0.0625-0.14453 0.089844-0.21875zm-11.164-8.7305c0.4375 0.19922 0.85156 0.44141 1.2383 0.72656-0.27344 0.17969-0.53516 0.37891-0.78125 0.59375-0.19531-0.42187-0.34766-0.86328-0.45703-1.3203zm3.3438 10.426c-1.7773-0.67969-2.9102-2.4258-2.8047-4.3203 0.48828 0.69922 1.0195 1.4062 1.5898 2.1055 0.72266 0.88672 1.4688 1.7148 2.207 2.4609-0.33984-0.042969-0.67188-0.125-0.99219-0.24609zm3.7852-0.33203v-0.003906c-1.1484-1.0312-2.2148-2.1562-3.1836-3.3633-0.84766-1.0312-1.6289-2.1172-2.332-3.25 0.82812-0.94531 2.0273-1.4883 3.2852-1.4922 1.9609 0 3.6836 1.3125 4.2031 3.2031 0.51953 1.8945-0.28516 3.9023-1.9727 4.9062zm1.957 1.4922c0.13672-0.10938 0.26953-0.22266 0.39844-0.34375 0.085938 0.24609 0.15625 0.47656 0.20312 0.66797-0.20703-0.097656-0.41016-0.20312-0.60156-0.32422z"/>
  <path d="m25.602 46.594c3.543 0 6.7383-2.1328 8.0938-5.4062 1.3555-3.2695 0.60547-7.0391-1.8984-9.543-2.5078-2.5039-6.2734-3.2539-9.5469-1.8984-3.2695 1.3555-5.4023 4.5508-5.4062 8.0938 0.007812 4.832 3.9258 8.75 8.7578 8.7539zm-5.8516-11.438h4.082c0.64844 0 1.1719-0.52344 1.1719-1.1719s-0.52344-1.1719-1.1719-1.1719h-2.2852c1.1055-0.78125 2.5195-1.418 4.0547-1.418 2.0117 0.007813 3.9023 0.95703 5.1133 2.5586 1.2109 1.6055 1.6016 3.6797 1.0625 5.6172-0.54297 1.9336-1.9531 3.5078-3.8203 4.25-1.8672 0.74219-3.9766 0.57422-5.6992-0.46094h2.332c0.64844 0 1.1719-0.52344 1.1719-1.1719s-0.52344-1.1719-1.1719-1.1719h-4.5508c-0.011718 0-0.023437-0.054687-0.03125-0.054687-0.26953-0.47266-0.46875-0.98047-0.59375-1.5078h3.1562c0.64453 0 1.1719-0.52344 1.1719-1.1719s-0.52734-1.1719-1.1719-1.1719h-3.3477c0.082032-0.67188 0.26172-1.332 0.52734-1.9531z"/>
 </g>
</svg>
