<?xml version="1.0" encoding="UTF-8"?>
<svg width="100pt" height="100pt" version="1.1" viewBox="0 0 100 100" xmlns="http://www.w3.org/2000/svg">
 <path d="m56.176 60.352h6.1211c1.3516 0 2.4414 1.1172 2.4023 2.4766-0.039063 1.2461-1.0703 2.2227-2.3008 2.3164h-9.6523c-0.67578 0-1.2266-0.55078-1.2266-1.2266v-3.6133h-1.7617v3.6133c0 1.6484 1.3359 2.9883 2.9883 2.9883h9.0078c1.6328 0 2.9531 1.3242 2.9531 2.957l-0.007812 12.906c0 1.6523-1.3945 2.9805-3.0742 2.8711-1.5312-0.10156-2.6875-1.4375-2.6875-2.9727l-0.003906-9.9297h-11.973c-2.4297 0-4.7148-1.9414-4.7148-4.8359 0-5.1562 3.4805-14.953 6.6992-18.195 0.82422-0.82812 1.9062-1.2461 2.9922-1.2461 1.0742 0 2.1484 0.40625 2.9688 1.2227 0.80469 0.79688 1.2148 1.8398 1.2422 2.8867 0.015624 0.11719 0.027343 7.7812 0.027343 7.7812zm7.3164-15.031-9.168-2.9414c-0.20703 0.53906-0.32422 1.1211-0.32422 1.7305 0 2.6641 2.1602 4.8281 4.8281 4.8281 2.2422 0 4.125-1.5391 4.6641-3.6172zm25.883-20.973h-55.805l-8.0508-1.3594 3.1367-3.0156h-2.8633c-0.88281 0-1.75 0.25391-2.4961 0.72656l-2.3828 1.5117-0.52344-0.089844 0.89062-2.0703c1.1602-2.6992-0.81641-5.7031-3.7539-5.7031h-7.8516l5.9922 2.3438c1.1406 0.44531 1.6758 1.7539 1.1797 2.8711l-0.77344 1.7383c-1.1484-0.22266-2.0039-0.039062-2.6367 0.87891l-7.707 11.441c-0.96094 1.1953-0.97656 2.8945-0.035157 4.1094 0.86328 1.1133 2.332 1.5586 3.668 1.1133l1.625-0.42969 4.5352-0.007812 5.625-1.4062 7.2773 11.824c1.6602 2.6992 4.4219 4.4844 7.5078 4.9375v21.215h3.5156l1.4844-14.062 2.25-4.6211c1.2734-3.2305 2.8672-6.1719 4.5078-7.8203 1.1328-1.1406 2.6367-1.7656 4.2422-1.7656 0.29297 0 0.58203 0.027344 0.86719 0.070313-0.35938-0.81641-0.56641-1.7148-0.56641-2.6602 0-0.79688 0.14844-1.5586 0.41016-2.2695l-3.6211-1.1602 0.53906-1.6797 3.3438 1.0703 4.5078-5.8984 8.2617 2.7305 0.027344 7.2734 4.375 1.4023-0.53906 1.6797-4.3672-1.4023c-0.76953 2.7852-3.3203 4.8398-6.3477 4.8398-0.44531 0-0.88281-0.046875-1.3047-0.13281 0.23438 0.62109 0.37109 1.2812 0.38672 1.9609h-0.003906c0.007812 0.18359 0.011718 0.55078 0.015625 1.3477h3.2695l1.4297 1.8633 4.2305 5.1406v3.1719c0 0.59375 0.48047 1.0742 1.0742 1.0742s1.0742-0.48047 1.0742-1.0742l0.003906-3.1445h2.7617v3.1445c0 0.59375 0.48047 1.0742 1.0742 1.0742s1.0742-0.48047 1.0742-1.0742v-3.1445h3.2031l-1.8047 14.062h3.5078l3.4375-14.047 0.0625-2.168-0.3125-3.8438 2.4453 3.1836v16.875h3.5156l1.4062-19.688-1.4062-8.4375 1.4062-9.7578v-9.9297c1.5508 0 2.8125 1.2617 2.8125 2.8125v23.906h2.8164v-23.906c0-3.1016-2.5234-5.625-5.625-5.625z"/>
</svg>
